%TF.GenerationSoftware,KiCad,Pcbnew,8.0.7-8.0.7-0~ubuntu22.04.1*%
%TF.CreationDate,2024-12-23T11:54:55+01:00*%
%TF.ProjectId,repeater_v2,72657065-6174-4657-925f-76322e6b6963,rev?*%
%TF.SameCoordinates,Original*%
%TF.FileFunction,Soldermask,Bot*%
%TF.FilePolarity,Negative*%
%FSLAX46Y46*%
G04 Gerber Fmt 4.6, Leading zero omitted, Abs format (unit mm)*
G04 Created by KiCad (PCBNEW 8.0.7-8.0.7-0~ubuntu22.04.1) date 2024-12-23 11:54:55*
%MOMM*%
%LPD*%
G01*
G04 APERTURE LIST*
G04 Aperture macros list*
%AMRoundRect*
0 Rectangle with rounded corners*
0 $1 Rounding radius*
0 $2 $3 $4 $5 $6 $7 $8 $9 X,Y pos of 4 corners*
0 Add a 4 corners polygon primitive as box body*
4,1,4,$2,$3,$4,$5,$6,$7,$8,$9,$2,$3,0*
0 Add four circle primitives for the rounded corners*
1,1,$1+$1,$2,$3*
1,1,$1+$1,$4,$5*
1,1,$1+$1,$6,$7*
1,1,$1+$1,$8,$9*
0 Add four rect primitives between the rounded corners*
20,1,$1+$1,$2,$3,$4,$5,0*
20,1,$1+$1,$4,$5,$6,$7,0*
20,1,$1+$1,$6,$7,$8,$9,0*
20,1,$1+$1,$8,$9,$2,$3,0*%
G04 Aperture macros list end*
%ADD10C,1.600000*%
%ADD11O,1.600000X1.600000*%
%ADD12R,1.700000X1.700000*%
%ADD13O,1.700000X1.700000*%
%ADD14R,2.200000X2.200000*%
%ADD15O,2.200000X2.200000*%
%ADD16C,1.440000*%
%ADD17R,1.050000X1.500000*%
%ADD18O,1.050000X1.500000*%
%ADD19R,1.600000X1.600000*%
%ADD20C,2.540000*%
%ADD21C,2.200000*%
%ADD22RoundRect,0.250001X0.949999X0.949999X-0.949999X0.949999X-0.949999X-0.949999X0.949999X-0.949999X0*%
%ADD23C,2.400000*%
G04 APERTURE END LIST*
D10*
%TO.C,C2*%
X55669346Y-40269213D03*
X55669346Y-45269213D03*
%TD*%
%TO.C,C1*%
X65037233Y-32852856D03*
X65037233Y-27852856D03*
%TD*%
%TO.C,R4*%
X65031734Y-35190000D03*
D11*
X65031734Y-42810000D03*
%TD*%
D12*
%TO.C,J2*%
X48787370Y-27592601D03*
D13*
X46247370Y-27592601D03*
X43707370Y-27592601D03*
X41167370Y-27592601D03*
X38627370Y-27592601D03*
%TD*%
D14*
%TO.C,D3*%
X58376591Y-37205214D03*
D15*
X58376591Y-27045214D03*
%TD*%
D16*
%TO.C,RV1*%
X53823273Y-28247157D03*
X53823273Y-30787157D03*
X53823273Y-33327157D03*
%TD*%
D10*
%TO.C,R1*%
X40000000Y-86190000D03*
D11*
X40000000Y-93810000D03*
%TD*%
D17*
%TO.C,Q1*%
X59137509Y-42719059D03*
D18*
X60407509Y-42719059D03*
X61677509Y-42719059D03*
%TD*%
D19*
%TO.C,C3*%
X41700494Y-47941934D03*
D10*
X39200494Y-47941934D03*
%TD*%
%TO.C,R2*%
X61778891Y-27808645D03*
D11*
X61778891Y-35428645D03*
%TD*%
D10*
%TO.C,R6*%
X52500000Y-45260066D03*
D11*
X52500000Y-37640066D03*
%TD*%
D10*
%TO.C,R3*%
X49321573Y-38885597D03*
D11*
X49321573Y-31265597D03*
%TD*%
D10*
%TO.C,R5*%
X40233203Y-42215530D03*
D11*
X47853203Y-42215530D03*
%TD*%
D20*
%TO.C,IN+*%
X46840533Y-89832977D03*
X64620533Y-89832977D03*
X64620533Y-49602977D03*
X46835489Y-49593646D03*
%TD*%
D14*
%TO.C,D1*%
X39269119Y-69996698D03*
D21*
X39269119Y-73846698D03*
X39269119Y-77696698D03*
X39269119Y-81546698D03*
%TD*%
D22*
%TO.C,J1*%
X53974922Y-96978417D03*
D23*
X50014922Y-96978417D03*
%TD*%
D19*
%TO.C,U1*%
X45996719Y-31312570D03*
D11*
X43456719Y-31312570D03*
X40916719Y-31312570D03*
X38376719Y-31312570D03*
X38376719Y-38932570D03*
X40916719Y-38932570D03*
X43456719Y-38932570D03*
X45996719Y-38932570D03*
%TD*%
M02*
