M48
; DRILL file {KiCad 8.0.7-8.0.7-0~ubuntu22.04.1} date 2024-12-23T11:47:13+0100
; FORMAT={-:-/ absolute / metric / decimal}
; #@! TF.CreationDate,2024-12-23T11:47:13+01:00
; #@! TF.GenerationSoftware,Kicad,Pcbnew,8.0.7-8.0.7-0~ubuntu22.04.1
; #@! TF.FileFunction,Plated,1,2,PTH
FMAT,2
METRIC
; #@! TA.AperFunction,Plated,PTH,ComponentDrill
T1C0.750
; #@! TA.AperFunction,Plated,PTH,ComponentDrill
T2C0.800
; #@! TA.AperFunction,Plated,PTH,ComponentDrill
T3C1.000
; #@! TA.AperFunction,Plated,PTH,ComponentDrill
T4C1.100
; #@! TA.AperFunction,Plated,PTH,ComponentDrill
T5C1.200
; #@! TA.AperFunction,Plated,PTH,ComponentDrill
T6C1.400
%
G90
G05
T1
X59.138Y-42.719
X60.408Y-42.719
X61.678Y-42.719
T2
X38.377Y-31.313
X38.377Y-38.933
X39.2Y-47.942
X40.0Y-86.19
X40.0Y-93.81
X40.233Y-42.216
X40.917Y-31.313
X40.917Y-38.933
X41.7Y-47.942
X43.457Y-31.313
X43.457Y-38.933
X45.997Y-31.313
X45.997Y-38.933
X47.853Y-42.216
X49.322Y-31.266
X49.322Y-38.886
X52.5Y-37.64
X52.5Y-45.26
X53.823Y-28.247
X53.823Y-30.787
X53.823Y-33.327
X55.669Y-40.269
X55.669Y-45.269
X61.779Y-27.809
X61.779Y-35.429
X65.032Y-35.19
X65.032Y-42.81
X65.037Y-27.853
X65.037Y-32.853
T3
X38.627Y-27.593
X41.167Y-27.593
X43.707Y-27.593
X46.247Y-27.593
X46.835Y-49.594
X46.841Y-89.833
X48.787Y-27.593
X64.621Y-49.603
X64.621Y-89.833
T4
X58.377Y-27.045
X58.377Y-37.205
T5
X39.269Y-69.997
X39.269Y-73.847
X39.269Y-77.697
X39.269Y-81.547
T6
X50.015Y-96.978
X53.975Y-96.978
M30
