%TF.GenerationSoftware,KiCad,Pcbnew,8.0.7-8.0.7-0~ubuntu22.04.1*%
%TF.CreationDate,2024-12-23T11:54:55+01:00*%
%TF.ProjectId,repeater_v2,72657065-6174-4657-925f-76322e6b6963,rev?*%
%TF.SameCoordinates,Original*%
%TF.FileFunction,Legend,Bot*%
%TF.FilePolarity,Positive*%
%FSLAX46Y46*%
G04 Gerber Fmt 4.6, Leading zero omitted, Abs format (unit mm)*
G04 Created by KiCad (PCBNEW 8.0.7-8.0.7-0~ubuntu22.04.1) date 2024-12-23 11:54:55*
%MOMM*%
%LPD*%
G01*
G04 APERTURE LIST*
G04 Aperture macros list*
%AMRoundRect*
0 Rectangle with rounded corners*
0 $1 Rounding radius*
0 $2 $3 $4 $5 $6 $7 $8 $9 X,Y pos of 4 corners*
0 Add a 4 corners polygon primitive as box body*
4,1,4,$2,$3,$4,$5,$6,$7,$8,$9,$2,$3,0*
0 Add four circle primitives for the rounded corners*
1,1,$1+$1,$2,$3*
1,1,$1+$1,$4,$5*
1,1,$1+$1,$6,$7*
1,1,$1+$1,$8,$9*
0 Add four rect primitives between the rounded corners*
20,1,$1+$1,$2,$3,$4,$5,0*
20,1,$1+$1,$4,$5,$6,$7,0*
20,1,$1+$1,$6,$7,$8,$9,0*
20,1,$1+$1,$8,$9,$2,$3,0*%
G04 Aperture macros list end*
%ADD10C,0.150000*%
%ADD11C,1.600000*%
%ADD12O,1.600000X1.600000*%
%ADD13R,1.700000X1.700000*%
%ADD14O,1.700000X1.700000*%
%ADD15R,2.200000X2.200000*%
%ADD16O,2.200000X2.200000*%
%ADD17C,1.440000*%
%ADD18R,1.050000X1.500000*%
%ADD19O,1.050000X1.500000*%
%ADD20R,1.600000X1.600000*%
%ADD21C,2.540000*%
%ADD22C,2.200000*%
%ADD23RoundRect,0.250001X0.949999X0.949999X-0.949999X0.949999X-0.949999X-0.949999X0.949999X-0.949999X0*%
%ADD24C,2.400000*%
G04 APERTURE END LIST*
D10*
G36*
X60352963Y-55161330D02*
G01*
X60423131Y-55168063D01*
X60486250Y-55183365D01*
X60549753Y-55211346D01*
X60604048Y-55250519D01*
X60610163Y-55256180D01*
X60652090Y-55306109D01*
X60681594Y-55364294D01*
X60698675Y-55430734D01*
X60703431Y-55495642D01*
X60699412Y-55553453D01*
X60683586Y-55616198D01*
X60652628Y-55674720D01*
X60628197Y-55703256D01*
X60571860Y-55741820D01*
X60507206Y-55760767D01*
X60507206Y-55766165D01*
X60677077Y-55762672D01*
X60771379Y-55762672D01*
X60786968Y-55762237D01*
X60851597Y-55748693D01*
X60906006Y-55713140D01*
X60917764Y-55700261D01*
X60947894Y-55641712D01*
X60956173Y-55577878D01*
X60956173Y-55294337D01*
X61104136Y-55294337D01*
X61104136Y-55575973D01*
X61104048Y-55586086D01*
X61098559Y-55653109D01*
X61081830Y-55721633D01*
X61053948Y-55781545D01*
X61014914Y-55832843D01*
X60959857Y-55878429D01*
X60902441Y-55906425D01*
X60837048Y-55922633D01*
X60773284Y-55927145D01*
X59762949Y-55927145D01*
X59762949Y-55764577D01*
X59942028Y-55764577D01*
X59942028Y-55760767D01*
X59898012Y-55749912D01*
X59841366Y-55720309D01*
X59795971Y-55674720D01*
X59765601Y-55621471D01*
X59747837Y-55559517D01*
X59746641Y-55544856D01*
X59890591Y-55544856D01*
X59893614Y-55587613D01*
X59912866Y-55651084D01*
X59953776Y-55705837D01*
X60002776Y-55739280D01*
X60063332Y-55758841D01*
X60128410Y-55764577D01*
X60317649Y-55764577D01*
X60376675Y-55759931D01*
X60438380Y-55741632D01*
X60492600Y-55705837D01*
X60522991Y-55669483D01*
X60548040Y-55610150D01*
X60555468Y-55544856D01*
X60552627Y-55501511D01*
X60534536Y-55437527D01*
X60496093Y-55382923D01*
X60463687Y-55357780D01*
X60400106Y-55332244D01*
X60335748Y-55325453D01*
X60110311Y-55325453D01*
X60068251Y-55328203D01*
X60005338Y-55345714D01*
X59950284Y-55382923D01*
X59921428Y-55419096D01*
X59897644Y-55478734D01*
X59890591Y-55544856D01*
X59746641Y-55544856D01*
X59742628Y-55495642D01*
X59742727Y-55485982D01*
X59748959Y-55421978D01*
X59767950Y-55356570D01*
X59799602Y-55299417D01*
X59843916Y-55250519D01*
X59856857Y-55239677D01*
X59914228Y-55203301D01*
X59980569Y-55178118D01*
X60045975Y-55165265D01*
X60118249Y-55160980D01*
X60331620Y-55160980D01*
X60352963Y-55161330D01*
G37*
G36*
X60779000Y-56246566D02*
G01*
X60631037Y-56246566D01*
X60631037Y-56603136D01*
X59910912Y-56603136D01*
X59910912Y-56283080D01*
X59762949Y-56283080D01*
X59762949Y-56767609D01*
X60631037Y-56767609D01*
X60631037Y-57106081D01*
X60779000Y-57106081D01*
X60779000Y-56246566D01*
G37*
G36*
X59580060Y-56666957D02*
G01*
X59568643Y-56604272D01*
X59547674Y-56571702D01*
X59492337Y-56540473D01*
X59460039Y-56537093D01*
X59397900Y-56550612D01*
X59369547Y-56571702D01*
X59340148Y-56628483D01*
X59336208Y-56666957D01*
X59347962Y-56729530D01*
X59369547Y-56761894D01*
X59426644Y-56793410D01*
X59460039Y-56796821D01*
X59522706Y-56781779D01*
X59547674Y-56761894D01*
X59576897Y-56702150D01*
X59580060Y-56666957D01*
G37*
G36*
X60779000Y-57831287D02*
G01*
X60773198Y-57765193D01*
X60753142Y-57700946D01*
X60718761Y-57646373D01*
X60705653Y-57631887D01*
X60655037Y-57592371D01*
X60594870Y-57567491D01*
X60525153Y-57557246D01*
X60510064Y-57556953D01*
X59910912Y-57556953D01*
X59910912Y-57268014D01*
X59762949Y-57268014D01*
X59762949Y-57556953D01*
X59478455Y-57556953D01*
X59478455Y-57721427D01*
X59762949Y-57721427D01*
X59762949Y-58132927D01*
X59910912Y-58132927D01*
X59910912Y-57721427D01*
X60513556Y-57721427D01*
X60576002Y-57735684D01*
X60598333Y-57751591D01*
X60628993Y-57807731D01*
X60631037Y-57831287D01*
X60631037Y-58123719D01*
X60779000Y-58123719D01*
X60779000Y-57831287D01*
G37*
G36*
X60779000Y-58441235D02*
G01*
X59437813Y-58441235D01*
X59437813Y-58605708D01*
X59968699Y-58605708D01*
X59968699Y-58607613D01*
X59905866Y-58621101D01*
X59847923Y-58648759D01*
X59801686Y-58689849D01*
X59765698Y-58748431D01*
X59747300Y-58813428D01*
X59742628Y-58874644D01*
X59747156Y-58938066D01*
X59763419Y-59003256D01*
X59791509Y-59060667D01*
X59831427Y-59110299D01*
X59837248Y-59115956D01*
X59888666Y-59155268D01*
X59948617Y-59183348D01*
X60017101Y-59200196D01*
X60084024Y-59205725D01*
X60094118Y-59205812D01*
X60779000Y-59205812D01*
X60779000Y-59041022D01*
X60127457Y-59041022D01*
X60061362Y-59035378D01*
X60000547Y-59016135D01*
X59952189Y-58983234D01*
X59912306Y-58929727D01*
X59893538Y-58868243D01*
X59890591Y-58827016D01*
X59898207Y-58761754D01*
X59923888Y-58702026D01*
X59955046Y-58665083D01*
X60010651Y-58628901D01*
X60074802Y-58610404D01*
X60136665Y-58605708D01*
X60779000Y-58605708D01*
X60779000Y-58441235D01*
G37*
G36*
X60799321Y-59910697D02*
G01*
X60794322Y-59838024D01*
X60779326Y-59771975D01*
X60754332Y-59712551D01*
X60713526Y-59652749D01*
X60694858Y-59632554D01*
X60645446Y-59591974D01*
X60588893Y-59561361D01*
X60525199Y-59540715D01*
X60454365Y-59530036D01*
X60410681Y-59528408D01*
X59762949Y-59528408D01*
X59762949Y-59693199D01*
X60409411Y-59693199D01*
X60474266Y-59698904D01*
X60535436Y-59718360D01*
X60585950Y-59751622D01*
X60625808Y-59801378D01*
X60647270Y-59863010D01*
X60651358Y-59910697D01*
X60643629Y-59976103D01*
X60617568Y-60035816D01*
X60585950Y-60072630D01*
X60530315Y-60108812D01*
X60468177Y-60127309D01*
X60409411Y-60132006D01*
X59762949Y-60132006D01*
X59762949Y-60296796D01*
X60410681Y-60296796D01*
X60475332Y-60293057D01*
X60544126Y-60279242D01*
X60605780Y-60255247D01*
X60660292Y-60221072D01*
X60694858Y-60190429D01*
X60735562Y-60140795D01*
X60766268Y-60084690D01*
X60786977Y-60022112D01*
X60797688Y-59953061D01*
X60799321Y-59910697D01*
G37*
G36*
X60779000Y-60787676D02*
G01*
X60583727Y-60787676D01*
X60583727Y-60789581D01*
X60631613Y-60799702D01*
X60693097Y-60829022D01*
X60742168Y-60875310D01*
X60774707Y-60930463D01*
X60793739Y-60995071D01*
X60799321Y-61062009D01*
X60792950Y-61134006D01*
X60773840Y-61198224D01*
X60741989Y-61254662D01*
X60697398Y-61303321D01*
X60684375Y-61314202D01*
X60626627Y-61350707D01*
X60559829Y-61375979D01*
X60493958Y-61388878D01*
X60421159Y-61393178D01*
X60122695Y-61393178D01*
X60100957Y-61392827D01*
X60029447Y-61386070D01*
X59965048Y-61370714D01*
X59900156Y-61342634D01*
X59844551Y-61303321D01*
X59838280Y-61297664D01*
X59795282Y-61248033D01*
X59765023Y-61190622D01*
X59747505Y-61125432D01*
X59742628Y-61062009D01*
X59747405Y-61007397D01*
X59890591Y-61007397D01*
X59893189Y-61050772D01*
X59909732Y-61114950D01*
X59944886Y-61169965D01*
X59995371Y-61205566D01*
X60059221Y-61223766D01*
X60123965Y-61228387D01*
X60417984Y-61228387D01*
X60475335Y-61224736D01*
X60540325Y-61207791D01*
X60596428Y-61169965D01*
X60622981Y-61133485D01*
X60644867Y-61073594D01*
X60651358Y-61007397D01*
X60647350Y-60959630D01*
X60626304Y-60897581D01*
X60587220Y-60847051D01*
X60537054Y-60813247D01*
X60475182Y-60793474D01*
X60408776Y-60787676D01*
X60133173Y-60787676D01*
X60072997Y-60792372D01*
X60010160Y-60810869D01*
X59955046Y-60847051D01*
X59923888Y-60883868D01*
X59898207Y-60943038D01*
X59890591Y-61007397D01*
X59747405Y-61007397D01*
X59748489Y-60995008D01*
X59768473Y-60930189D01*
X59802639Y-60874675D01*
X59839582Y-60837757D01*
X59899309Y-60803146D01*
X59964572Y-60786088D01*
X59964572Y-60784183D01*
X59733420Y-60787676D01*
X59437813Y-60787676D01*
X59437813Y-60623203D01*
X60779000Y-60623203D01*
X60779000Y-60787676D01*
G37*
G36*
X60799321Y-62094570D02*
G01*
X60787671Y-62030150D01*
X60758043Y-61985662D01*
X60703614Y-61952543D01*
X60650723Y-61944703D01*
X60587776Y-61954943D01*
X60538005Y-61985662D01*
X60502832Y-62040438D01*
X60494505Y-62094570D01*
X60506782Y-62158901D01*
X60538005Y-62203161D01*
X60594923Y-62236537D01*
X60650723Y-62244438D01*
X60713746Y-62232788D01*
X60758043Y-62203161D01*
X60791420Y-62148642D01*
X60799321Y-62094570D01*
G37*
G36*
X60799321Y-63200160D02*
G01*
X60795670Y-63134144D01*
X60782185Y-63063615D01*
X60758763Y-63000075D01*
X60725404Y-62943525D01*
X60695493Y-62907411D01*
X60646346Y-62864727D01*
X60589754Y-62832528D01*
X60525717Y-62810812D01*
X60454236Y-62799579D01*
X60410046Y-62797868D01*
X60131903Y-62797868D01*
X60066530Y-62801719D01*
X59997176Y-62815946D01*
X59935266Y-62840658D01*
X59880801Y-62875853D01*
X59846456Y-62907411D01*
X59806000Y-62958969D01*
X59775480Y-63017517D01*
X59754897Y-63083053D01*
X59744251Y-63155579D01*
X59742628Y-63200160D01*
X59747156Y-63272955D01*
X59760739Y-63339368D01*
X59783378Y-63399400D01*
X59820338Y-63460195D01*
X59837248Y-63480844D01*
X59888844Y-63527995D01*
X59949013Y-63562445D01*
X60017756Y-63584195D01*
X60084937Y-63592808D01*
X60095071Y-63593244D01*
X60095071Y-63428771D01*
X60027633Y-63416998D01*
X59968987Y-63386811D01*
X59943616Y-63363046D01*
X59909284Y-63307060D01*
X59893128Y-63243008D01*
X59890591Y-63200160D01*
X59896668Y-63136874D01*
X59920005Y-63071982D01*
X59952824Y-63027114D01*
X60006910Y-62987643D01*
X60069513Y-62967464D01*
X60129997Y-62962341D01*
X60410046Y-62962341D01*
X60476997Y-62968666D01*
X60538897Y-62990236D01*
X60588490Y-63027114D01*
X60626800Y-63081960D01*
X60646385Y-63142826D01*
X60651358Y-63200160D01*
X60645017Y-63265678D01*
X60623637Y-63325771D01*
X60597698Y-63363046D01*
X60546819Y-63402996D01*
X60481897Y-63424816D01*
X60447196Y-63428771D01*
X60447196Y-63593244D01*
X60515315Y-63586021D01*
X60576871Y-63569074D01*
X60639183Y-63537798D01*
X60692923Y-63493822D01*
X60705018Y-63480844D01*
X60746276Y-63423175D01*
X60775745Y-63357172D01*
X60791861Y-63292581D01*
X60798952Y-63221610D01*
X60799321Y-63200160D01*
G37*
G36*
X60440383Y-63884161D02*
G01*
X60504472Y-63894193D01*
X60571708Y-63915405D01*
X60630830Y-63946858D01*
X60681840Y-63988551D01*
X60712757Y-64023796D01*
X60747238Y-64079207D01*
X60771448Y-64141699D01*
X60785387Y-64211270D01*
X60789160Y-64276538D01*
X60787483Y-64320628D01*
X60776479Y-64392223D01*
X60755203Y-64456737D01*
X60723657Y-64514171D01*
X60681840Y-64564525D01*
X60638614Y-64600889D01*
X60580650Y-64633805D01*
X60514573Y-64656480D01*
X60451478Y-64667766D01*
X60382422Y-64671528D01*
X60149366Y-64671528D01*
X60090880Y-64668939D01*
X60026345Y-64658996D01*
X59958842Y-64637973D01*
X59899725Y-64606800D01*
X59848996Y-64565478D01*
X59818353Y-64530461D01*
X59784178Y-64475134D01*
X59760183Y-64412454D01*
X59746368Y-64342420D01*
X59742628Y-64276538D01*
X59890591Y-64276538D01*
X59894401Y-64327599D01*
X59914404Y-64393250D01*
X59951554Y-64445774D01*
X60000257Y-64480663D01*
X60062541Y-64501070D01*
X60130950Y-64507055D01*
X60400838Y-64507055D01*
X60462911Y-64502207D01*
X60526431Y-64483117D01*
X60580235Y-64445774D01*
X60609704Y-64407612D01*
X60633994Y-64345242D01*
X60641198Y-64276538D01*
X60637387Y-64226252D01*
X60617384Y-64161092D01*
X60580235Y-64108255D01*
X60531532Y-64072823D01*
X60469247Y-64052099D01*
X60400838Y-64046022D01*
X60130950Y-64046022D01*
X60068877Y-64050945D01*
X60005358Y-64070332D01*
X59951554Y-64108255D01*
X59922084Y-64146727D01*
X59897794Y-64208806D01*
X59890591Y-64276538D01*
X59742628Y-64276538D01*
X59744290Y-64232017D01*
X59755197Y-64159882D01*
X59776284Y-64095100D01*
X59807550Y-64037673D01*
X59848996Y-63987599D01*
X59891965Y-63951558D01*
X59949883Y-63918936D01*
X60016188Y-63896462D01*
X60079696Y-63885277D01*
X60149366Y-63881549D01*
X60382422Y-63881549D01*
X60440383Y-63884161D01*
G37*
G36*
X60779000Y-64928715D02*
G01*
X59762949Y-64928715D01*
X59762949Y-65071280D01*
X59895988Y-65071280D01*
X59895988Y-65074773D01*
X59834152Y-65092871D01*
X59785175Y-65128750D01*
X59751977Y-65183308D01*
X59742628Y-65243056D01*
X59753650Y-65307492D01*
X59781683Y-65354822D01*
X59830726Y-65396143D01*
X59887098Y-65420547D01*
X59887098Y-65422452D01*
X59824138Y-65444998D01*
X59781683Y-65479923D01*
X59750104Y-65538125D01*
X59742628Y-65594228D01*
X59752898Y-65661517D01*
X59783707Y-65717643D01*
X59815657Y-65748859D01*
X59871042Y-65781578D01*
X59936782Y-65800717D01*
X60005531Y-65806329D01*
X60779000Y-65806329D01*
X60779000Y-65652969D01*
X59998546Y-65652969D01*
X59934618Y-65642559D01*
X59901069Y-65623440D01*
X59866836Y-65567299D01*
X59864554Y-65543108D01*
X59884558Y-65480240D01*
X59900116Y-65464364D01*
X59960883Y-65438006D01*
X59996641Y-65435153D01*
X60779000Y-65435153D01*
X60779000Y-65299891D01*
X59998546Y-65299891D01*
X59934618Y-65289593D01*
X59901069Y-65270680D01*
X59866836Y-65215432D01*
X59864554Y-65191936D01*
X59882926Y-65129605D01*
X59900116Y-65111287D01*
X59960883Y-65084928D01*
X59996641Y-65082076D01*
X60779000Y-65082076D01*
X60779000Y-64928715D01*
G37*
G36*
X60982210Y-66047006D02*
G01*
X59244764Y-66696325D01*
X59244764Y-66870006D01*
X60982210Y-66220687D01*
X60982210Y-66047006D01*
G37*
G36*
X61104136Y-67333579D02*
G01*
X60812021Y-67333579D01*
X60583727Y-67330087D01*
X60583727Y-67335484D01*
X60630839Y-67345605D01*
X60691832Y-67374926D01*
X60741215Y-67421214D01*
X60774297Y-67476367D01*
X60793646Y-67540974D01*
X60799321Y-67607913D01*
X60792950Y-67679910D01*
X60773840Y-67744127D01*
X60741989Y-67800566D01*
X60697398Y-67849225D01*
X60670756Y-67870285D01*
X60610508Y-67903981D01*
X60550172Y-67924252D01*
X60482725Y-67935923D01*
X60419254Y-67939082D01*
X60120789Y-67939082D01*
X60099056Y-67938731D01*
X60027618Y-67931974D01*
X59963381Y-67916618D01*
X59898786Y-67888537D01*
X59843598Y-67849225D01*
X59837386Y-67843568D01*
X59794790Y-67793936D01*
X59764814Y-67736525D01*
X59747460Y-67671335D01*
X59742628Y-67607913D01*
X59747334Y-67553300D01*
X59890591Y-67553300D01*
X59893189Y-67596676D01*
X59909732Y-67660854D01*
X59944886Y-67715868D01*
X59995371Y-67751470D01*
X60059221Y-67769670D01*
X60123965Y-67774291D01*
X60417984Y-67774291D01*
X60475335Y-67770640D01*
X60540325Y-67753695D01*
X60596428Y-67715868D01*
X60622981Y-67679389D01*
X60644867Y-67619497D01*
X60651358Y-67553300D01*
X60647350Y-67505534D01*
X60626304Y-67443484D01*
X60587220Y-67392955D01*
X60537054Y-67359150D01*
X60475182Y-67339378D01*
X60408776Y-67333579D01*
X60133173Y-67333579D01*
X60072997Y-67338276D01*
X60010160Y-67356773D01*
X59955046Y-67392955D01*
X59923888Y-67429772D01*
X59898207Y-67488942D01*
X59890591Y-67553300D01*
X59747334Y-67553300D01*
X59748396Y-67540974D01*
X59768062Y-67476367D01*
X59801686Y-67421214D01*
X59838319Y-67384907D01*
X59898337Y-67351345D01*
X59964572Y-67335484D01*
X59964572Y-67333579D01*
X59762949Y-67333579D01*
X59762949Y-67169106D01*
X61104136Y-67169106D01*
X61104136Y-67333579D01*
G37*
G36*
X60779000Y-68786849D02*
G01*
X60774118Y-68723385D01*
X60756955Y-68660054D01*
X60723393Y-68599701D01*
X60700891Y-68573478D01*
X60646944Y-68531618D01*
X60583137Y-68505262D01*
X60517280Y-68494797D01*
X60493553Y-68494099D01*
X59585775Y-68494099D01*
X59585775Y-68146737D01*
X59437813Y-68146737D01*
X59437813Y-68658890D01*
X60496728Y-68658890D01*
X60561604Y-68671091D01*
X60595158Y-68693499D01*
X60626798Y-68749316D01*
X60631037Y-68786849D01*
X60631037Y-69097697D01*
X60779000Y-69097697D01*
X60779000Y-68786849D01*
G37*
G36*
X60799321Y-69729553D02*
G01*
X60794322Y-69656880D01*
X60779326Y-69590831D01*
X60754332Y-69531406D01*
X60713526Y-69471604D01*
X60694858Y-69451409D01*
X60645446Y-69410829D01*
X60588893Y-69380216D01*
X60525199Y-69359570D01*
X60454365Y-69348891D01*
X60410681Y-69347264D01*
X59762949Y-69347264D01*
X59762949Y-69512055D01*
X60409411Y-69512055D01*
X60474266Y-69517760D01*
X60535436Y-69537215D01*
X60585950Y-69570478D01*
X60625808Y-69620233D01*
X60647270Y-69681866D01*
X60651358Y-69729553D01*
X60643629Y-69794959D01*
X60617568Y-69854671D01*
X60585950Y-69891486D01*
X60530315Y-69927668D01*
X60468177Y-69946165D01*
X60409411Y-69950861D01*
X59762949Y-69950861D01*
X59762949Y-70115652D01*
X60410681Y-70115652D01*
X60475332Y-70111912D01*
X60544126Y-70098097D01*
X60605780Y-70074102D01*
X60660292Y-70039927D01*
X60694858Y-70009284D01*
X60735562Y-69959651D01*
X60766268Y-69903545D01*
X60786977Y-69840967D01*
X60797688Y-69771916D01*
X60799321Y-69729553D01*
G37*
G36*
X60789160Y-70782117D02*
G01*
X60785468Y-70712125D01*
X60774392Y-70649395D01*
X60752692Y-70586596D01*
X60716751Y-70527286D01*
X60712004Y-70521437D01*
X60663376Y-70476926D01*
X60604652Y-70446982D01*
X60535832Y-70431606D01*
X60493235Y-70429357D01*
X60493235Y-70593831D01*
X60558604Y-70607720D01*
X60602143Y-70643046D01*
X60631434Y-70702580D01*
X60640854Y-70765680D01*
X60641198Y-70782117D01*
X60641198Y-70862766D01*
X60634543Y-70930253D01*
X60610324Y-70991192D01*
X60600873Y-71004378D01*
X60548371Y-71043771D01*
X60486568Y-71054863D01*
X60422025Y-71045445D01*
X60367698Y-71008352D01*
X60341751Y-70950213D01*
X60339240Y-70935795D01*
X60298598Y-70657969D01*
X60281916Y-70592863D01*
X60248569Y-70534162D01*
X60213187Y-70498576D01*
X60153548Y-70464135D01*
X60087818Y-70446529D01*
X60026170Y-70442058D01*
X59956188Y-70449216D01*
X59895198Y-70470690D01*
X59837977Y-70511341D01*
X59818197Y-70532550D01*
X59781667Y-70588877D01*
X59757093Y-70656054D01*
X59745285Y-70724875D01*
X59742628Y-70782117D01*
X59742628Y-70862766D01*
X59747292Y-70932560D01*
X59761282Y-70995567D01*
X59788170Y-71058338D01*
X59817244Y-71101221D01*
X59862858Y-71146463D01*
X59922082Y-71180943D01*
X59990298Y-71198803D01*
X60012517Y-71200921D01*
X60012517Y-71034542D01*
X59951132Y-71011361D01*
X59925200Y-70984375D01*
X59898195Y-70926808D01*
X59890591Y-70862766D01*
X59890591Y-70782117D01*
X59898005Y-70715483D01*
X59924637Y-70656444D01*
X59929327Y-70650348D01*
X59981189Y-70612094D01*
X60033473Y-70603039D01*
X60100389Y-70616657D01*
X60145953Y-70666970D01*
X60154764Y-70699881D01*
X60191278Y-70959609D01*
X60208330Y-71033335D01*
X60236468Y-71094565D01*
X60284866Y-71151547D01*
X60349226Y-71190534D01*
X60415053Y-71209278D01*
X60491965Y-71215526D01*
X60558663Y-71209752D01*
X60624258Y-71189449D01*
X60679856Y-71154530D01*
X60711369Y-71123129D01*
X60748973Y-71065307D01*
X60772067Y-71003788D01*
X60785438Y-70932744D01*
X60789160Y-70862766D01*
X60789160Y-70782117D01*
G37*
G36*
X60779000Y-71805471D02*
G01*
X59762949Y-71463506D01*
X59762949Y-71640997D01*
X60448148Y-71860401D01*
X60511667Y-71880131D01*
X60565629Y-71895010D01*
X60629006Y-71911172D01*
X60653581Y-71917236D01*
X60589155Y-71933453D01*
X60565629Y-71938827D01*
X60500640Y-71955180D01*
X60448148Y-71970261D01*
X59762949Y-72189665D01*
X59762949Y-72363346D01*
X60779000Y-72021381D01*
X60779000Y-71805471D01*
G37*
G36*
X60779000Y-72611325D02*
G01*
X60631037Y-72611325D01*
X60631037Y-72967896D01*
X59910912Y-72967896D01*
X59910912Y-72647840D01*
X59762949Y-72647840D01*
X59762949Y-73132369D01*
X60631037Y-73132369D01*
X60631037Y-73470840D01*
X60779000Y-73470840D01*
X60779000Y-72611325D01*
G37*
G36*
X59580060Y-73031716D02*
G01*
X59568643Y-72969032D01*
X59547674Y-72936461D01*
X59492337Y-72905232D01*
X59460039Y-72901852D01*
X59397900Y-72915371D01*
X59369547Y-72936461D01*
X59340148Y-72993242D01*
X59336208Y-73031716D01*
X59347962Y-73094289D01*
X59369547Y-73126653D01*
X59426644Y-73158169D01*
X59460039Y-73161580D01*
X59522706Y-73146538D01*
X59547674Y-73126653D01*
X59576897Y-73066910D01*
X59580060Y-73031716D01*
G37*
G36*
X60799321Y-74110000D02*
G01*
X60795670Y-74043984D01*
X60782185Y-73973455D01*
X60758763Y-73909915D01*
X60725404Y-73853364D01*
X60695493Y-73817250D01*
X60646346Y-73774567D01*
X60589754Y-73742367D01*
X60525717Y-73720651D01*
X60454236Y-73709419D01*
X60410046Y-73707707D01*
X60131903Y-73707707D01*
X60066530Y-73711558D01*
X59997176Y-73725786D01*
X59935266Y-73750497D01*
X59880801Y-73785692D01*
X59846456Y-73817250D01*
X59806000Y-73868808D01*
X59775480Y-73927356D01*
X59754897Y-73992893D01*
X59744251Y-74065418D01*
X59742628Y-74110000D01*
X59747156Y-74182794D01*
X59760739Y-74249208D01*
X59783378Y-74309240D01*
X59820338Y-74370034D01*
X59837248Y-74390683D01*
X59888844Y-74437834D01*
X59949013Y-74472285D01*
X60017756Y-74494035D01*
X60084937Y-74502647D01*
X60095071Y-74503084D01*
X60095071Y-74338611D01*
X60027633Y-74326838D01*
X59968987Y-74296650D01*
X59943616Y-74272885D01*
X59909284Y-74216899D01*
X59893128Y-74152848D01*
X59890591Y-74110000D01*
X59896668Y-74046713D01*
X59920005Y-73981821D01*
X59952824Y-73936953D01*
X60006910Y-73897482D01*
X60069513Y-73877304D01*
X60129997Y-73872180D01*
X60410046Y-73872180D01*
X60476997Y-73878506D01*
X60538897Y-73900076D01*
X60588490Y-73936953D01*
X60626800Y-73991799D01*
X60646385Y-74052665D01*
X60651358Y-74110000D01*
X60645017Y-74175518D01*
X60623637Y-74235610D01*
X60597698Y-74272885D01*
X60546819Y-74312836D01*
X60481897Y-74334656D01*
X60447196Y-74338611D01*
X60447196Y-74503084D01*
X60515315Y-74495860D01*
X60576871Y-74478913D01*
X60639183Y-74447638D01*
X60692923Y-74403662D01*
X60705018Y-74390683D01*
X60746276Y-74333015D01*
X60775745Y-74267011D01*
X60791861Y-74202421D01*
X60798952Y-74131449D01*
X60799321Y-74110000D01*
G37*
G36*
X60982210Y-74774877D02*
G01*
X59244764Y-75424197D01*
X59244764Y-75597878D01*
X60982210Y-74948558D01*
X60982210Y-74774877D01*
G37*
G36*
X60789160Y-76237037D02*
G01*
X60785468Y-76167045D01*
X60774392Y-76104314D01*
X60752692Y-76041516D01*
X60716751Y-75982206D01*
X60712004Y-75976357D01*
X60663376Y-75931846D01*
X60604652Y-75901902D01*
X60535832Y-75886525D01*
X60493235Y-75884277D01*
X60493235Y-76048750D01*
X60558604Y-76062640D01*
X60602143Y-76097965D01*
X60631434Y-76157500D01*
X60640854Y-76220600D01*
X60641198Y-76237037D01*
X60641198Y-76317686D01*
X60634543Y-76385173D01*
X60610324Y-76446111D01*
X60600873Y-76459298D01*
X60548371Y-76498690D01*
X60486568Y-76509783D01*
X60422025Y-76500365D01*
X60367698Y-76463272D01*
X60341751Y-76405133D01*
X60339240Y-76390715D01*
X60298598Y-76112889D01*
X60281916Y-76047783D01*
X60248569Y-75989082D01*
X60213187Y-75953496D01*
X60153548Y-75919055D01*
X60087818Y-75901449D01*
X60026170Y-75896978D01*
X59956188Y-75904136D01*
X59895198Y-75925610D01*
X59837977Y-75966261D01*
X59818197Y-75987470D01*
X59781667Y-76043797D01*
X59757093Y-76110974D01*
X59745285Y-76179795D01*
X59742628Y-76237037D01*
X59742628Y-76317686D01*
X59747292Y-76387480D01*
X59761282Y-76450487D01*
X59788170Y-76513258D01*
X59817244Y-76556140D01*
X59862858Y-76601383D01*
X59922082Y-76635863D01*
X59990298Y-76653723D01*
X60012517Y-76655840D01*
X60012517Y-76489462D01*
X59951132Y-76466281D01*
X59925200Y-76439295D01*
X59898195Y-76381727D01*
X59890591Y-76317686D01*
X59890591Y-76237037D01*
X59898005Y-76170402D01*
X59924637Y-76111364D01*
X59929327Y-76105268D01*
X59981189Y-76067014D01*
X60033473Y-76057958D01*
X60100389Y-76071577D01*
X60145953Y-76121889D01*
X60154764Y-76154801D01*
X60191278Y-76414528D01*
X60208330Y-76488255D01*
X60236468Y-76549485D01*
X60284866Y-76606467D01*
X60349226Y-76645454D01*
X60415053Y-76664198D01*
X60491965Y-76670446D01*
X60558663Y-76664671D01*
X60624258Y-76644369D01*
X60679856Y-76609450D01*
X60711369Y-76578049D01*
X60748973Y-76520226D01*
X60772067Y-76458708D01*
X60785438Y-76387664D01*
X60789160Y-76317686D01*
X60789160Y-76237037D01*
G37*
G36*
X60779000Y-76975261D02*
G01*
X60631037Y-76975261D01*
X60631037Y-77331831D01*
X59910912Y-77331831D01*
X59910912Y-77011775D01*
X59762949Y-77011775D01*
X59762949Y-77496304D01*
X60631037Y-77496304D01*
X60631037Y-77834776D01*
X60779000Y-77834776D01*
X60779000Y-76975261D01*
G37*
G36*
X59580060Y-77395652D02*
G01*
X59568643Y-77332967D01*
X59547674Y-77300397D01*
X59492337Y-77269168D01*
X59460039Y-77265788D01*
X59397900Y-77279307D01*
X59369547Y-77300397D01*
X59340148Y-77357178D01*
X59336208Y-77395652D01*
X59347962Y-77458225D01*
X59369547Y-77490589D01*
X59426644Y-77522105D01*
X59460039Y-77525516D01*
X59522706Y-77510474D01*
X59547674Y-77490589D01*
X59576897Y-77430845D01*
X59580060Y-77395652D01*
G37*
G36*
X60779000Y-78020523D02*
G01*
X59762949Y-78020523D01*
X59762949Y-78163087D01*
X59895988Y-78163087D01*
X59895988Y-78166580D01*
X59834152Y-78184678D01*
X59785175Y-78220558D01*
X59751977Y-78275115D01*
X59742628Y-78334863D01*
X59753650Y-78399299D01*
X59781683Y-78446629D01*
X59830726Y-78487950D01*
X59887098Y-78512355D01*
X59887098Y-78514260D01*
X59824138Y-78536805D01*
X59781683Y-78571730D01*
X59750104Y-78629932D01*
X59742628Y-78686036D01*
X59752898Y-78753324D01*
X59783707Y-78809450D01*
X59815657Y-78840666D01*
X59871042Y-78873386D01*
X59936782Y-78892524D01*
X60005531Y-78898136D01*
X60779000Y-78898136D01*
X60779000Y-78744776D01*
X59998546Y-78744776D01*
X59934618Y-78734366D01*
X59901069Y-78715247D01*
X59866836Y-78659106D01*
X59864554Y-78634916D01*
X59884558Y-78572048D01*
X59900116Y-78556172D01*
X59960883Y-78529813D01*
X59996641Y-78526960D01*
X60779000Y-78526960D01*
X60779000Y-78391699D01*
X59998546Y-78391699D01*
X59934618Y-78381401D01*
X59901069Y-78362487D01*
X59866836Y-78307240D01*
X59864554Y-78283743D01*
X59882926Y-78221412D01*
X59900116Y-78203094D01*
X59960883Y-78176736D01*
X59996641Y-78173883D01*
X60779000Y-78173883D01*
X60779000Y-78020523D01*
G37*
G36*
X61104136Y-79334403D02*
G01*
X60812021Y-79334403D01*
X60583727Y-79330910D01*
X60583727Y-79336308D01*
X60630839Y-79346429D01*
X60691832Y-79375749D01*
X60741215Y-79422037D01*
X60774297Y-79477190D01*
X60793646Y-79541798D01*
X60799321Y-79608736D01*
X60792950Y-79680733D01*
X60773840Y-79744951D01*
X60741989Y-79801389D01*
X60697398Y-79850048D01*
X60670756Y-79871109D01*
X60610508Y-79904805D01*
X60550172Y-79925075D01*
X60482725Y-79936746D01*
X60419254Y-79939905D01*
X60120789Y-79939905D01*
X60099056Y-79939554D01*
X60027618Y-79932797D01*
X59963381Y-79917441D01*
X59898786Y-79889361D01*
X59843598Y-79850048D01*
X59837386Y-79844391D01*
X59794790Y-79794760D01*
X59764814Y-79737349D01*
X59747460Y-79672159D01*
X59742628Y-79608736D01*
X59747334Y-79554124D01*
X59890591Y-79554124D01*
X59893189Y-79597499D01*
X59909732Y-79661677D01*
X59944886Y-79716692D01*
X59995371Y-79752293D01*
X60059221Y-79770493D01*
X60123965Y-79775115D01*
X60417984Y-79775115D01*
X60475335Y-79771463D01*
X60540325Y-79754518D01*
X60596428Y-79716692D01*
X60622981Y-79680212D01*
X60644867Y-79620321D01*
X60651358Y-79554124D01*
X60647350Y-79506357D01*
X60626304Y-79444308D01*
X60587220Y-79393778D01*
X60537054Y-79359974D01*
X60475182Y-79340201D01*
X60408776Y-79334403D01*
X60133173Y-79334403D01*
X60072997Y-79339100D01*
X60010160Y-79357596D01*
X59955046Y-79393778D01*
X59923888Y-79430596D01*
X59898207Y-79489765D01*
X59890591Y-79554124D01*
X59747334Y-79554124D01*
X59748396Y-79541798D01*
X59768062Y-79477190D01*
X59801686Y-79422037D01*
X59838319Y-79385731D01*
X59898337Y-79352168D01*
X59964572Y-79336308D01*
X59964572Y-79334403D01*
X59762949Y-79334403D01*
X59762949Y-79169930D01*
X61104136Y-79169930D01*
X61104136Y-79334403D01*
G37*
G36*
X60779000Y-80787672D02*
G01*
X60774118Y-80724209D01*
X60756955Y-80660877D01*
X60723393Y-80600525D01*
X60700891Y-80574302D01*
X60646944Y-80532442D01*
X60583137Y-80506085D01*
X60517280Y-80495620D01*
X60493553Y-80494923D01*
X59585775Y-80494923D01*
X59585775Y-80147561D01*
X59437813Y-80147561D01*
X59437813Y-80659713D01*
X60496728Y-80659713D01*
X60561604Y-80671914D01*
X60595158Y-80694323D01*
X60626798Y-80750140D01*
X60631037Y-80787672D01*
X60631037Y-81098520D01*
X60779000Y-81098520D01*
X60779000Y-80787672D01*
G37*
G36*
X60449256Y-81339943D02*
G01*
X60513106Y-81350123D01*
X60580290Y-81371651D01*
X60639604Y-81403570D01*
X60691048Y-81445882D01*
X60722240Y-81481590D01*
X60757026Y-81537208D01*
X60781451Y-81599389D01*
X60795514Y-81668133D01*
X60799321Y-81732281D01*
X60799247Y-81742172D01*
X60794597Y-81808505D01*
X60780428Y-81878101D01*
X60756813Y-81941068D01*
X60723752Y-81997407D01*
X60698735Y-82028362D01*
X60647141Y-82073063D01*
X60587108Y-82103598D01*
X60518637Y-82119968D01*
X60518637Y-81955495D01*
X60573329Y-81930887D01*
X60615479Y-81883101D01*
X60627672Y-81859708D01*
X60646313Y-81796355D01*
X60651358Y-81732281D01*
X60647270Y-81681876D01*
X60625808Y-81616091D01*
X60585950Y-81562093D01*
X60535211Y-81525758D01*
X60473366Y-81504505D01*
X60407506Y-81498272D01*
X60311616Y-81498272D01*
X60311616Y-82127271D01*
X60130632Y-82127271D01*
X60123261Y-82127223D01*
X60052961Y-82121418D01*
X59988863Y-82105939D01*
X59925517Y-82077739D01*
X59875124Y-82043103D01*
X59828430Y-81996051D01*
X59790891Y-81939619D01*
X59782266Y-81922744D01*
X59759643Y-81862664D01*
X59746446Y-81796693D01*
X59742628Y-81732281D01*
X59890591Y-81732281D01*
X59895714Y-81791003D01*
X59915893Y-81851995D01*
X59955364Y-81905010D01*
X60006236Y-81939899D01*
X60069790Y-81960306D01*
X60138570Y-81966290D01*
X60189690Y-81966290D01*
X60189690Y-81498272D01*
X60138570Y-81498272D01*
X60076196Y-81503120D01*
X60011490Y-81522210D01*
X59955364Y-81559553D01*
X59918486Y-81607611D01*
X59896916Y-81667526D01*
X59890591Y-81732281D01*
X59742628Y-81732281D01*
X59744325Y-81688980D01*
X59755460Y-81618360D01*
X59776987Y-81554304D01*
X59808907Y-81496811D01*
X59851219Y-81445882D01*
X59894723Y-81408979D01*
X59952815Y-81375574D01*
X60018807Y-81352562D01*
X60081661Y-81341110D01*
X60150318Y-81337292D01*
X60391630Y-81337292D01*
X60449256Y-81339943D01*
G37*
G36*
X60779000Y-82607355D02*
G01*
X60583727Y-82607355D01*
X60583727Y-82609260D01*
X60631613Y-82619381D01*
X60693097Y-82648701D01*
X60742168Y-82694989D01*
X60774707Y-82750142D01*
X60793739Y-82814750D01*
X60799321Y-82881688D01*
X60792950Y-82953685D01*
X60773840Y-83017903D01*
X60741989Y-83074341D01*
X60697398Y-83123000D01*
X60684375Y-83133881D01*
X60626627Y-83170386D01*
X60559829Y-83195658D01*
X60493958Y-83208557D01*
X60421159Y-83212857D01*
X60122695Y-83212857D01*
X60100957Y-83212506D01*
X60029447Y-83205749D01*
X59965048Y-83190393D01*
X59900156Y-83162313D01*
X59844551Y-83123000D01*
X59838280Y-83117343D01*
X59795282Y-83067712D01*
X59765023Y-83010301D01*
X59747505Y-82945111D01*
X59742628Y-82881688D01*
X59747405Y-82827076D01*
X59890591Y-82827076D01*
X59893189Y-82870451D01*
X59909732Y-82934629D01*
X59944886Y-82989644D01*
X59995371Y-83025245D01*
X60059221Y-83043445D01*
X60123965Y-83048066D01*
X60417984Y-83048066D01*
X60475335Y-83044415D01*
X60540325Y-83027470D01*
X60596428Y-82989644D01*
X60622981Y-82953164D01*
X60644867Y-82893273D01*
X60651358Y-82827076D01*
X60647350Y-82779309D01*
X60626304Y-82717260D01*
X60587220Y-82666730D01*
X60537054Y-82632926D01*
X60475182Y-82613153D01*
X60408776Y-82607355D01*
X60133173Y-82607355D01*
X60072997Y-82612051D01*
X60010160Y-82630548D01*
X59955046Y-82666730D01*
X59923888Y-82703547D01*
X59898207Y-82762717D01*
X59890591Y-82827076D01*
X59747405Y-82827076D01*
X59748489Y-82814687D01*
X59768473Y-82749868D01*
X59802639Y-82694354D01*
X59839582Y-82657436D01*
X59899309Y-82622825D01*
X59964572Y-82605767D01*
X59964572Y-82603862D01*
X59733420Y-82607355D01*
X59437813Y-82607355D01*
X59437813Y-82442882D01*
X60779000Y-82442882D01*
X60779000Y-82607355D01*
G37*
G36*
X60799321Y-83912344D02*
G01*
X60794322Y-83839671D01*
X60779326Y-83773622D01*
X60754332Y-83714198D01*
X60713526Y-83654396D01*
X60694858Y-83634200D01*
X60645446Y-83593620D01*
X60588893Y-83563008D01*
X60525199Y-83542362D01*
X60454365Y-83531683D01*
X60410681Y-83530055D01*
X59762949Y-83530055D01*
X59762949Y-83694846D01*
X60409411Y-83694846D01*
X60474266Y-83700551D01*
X60535436Y-83720007D01*
X60585950Y-83753269D01*
X60625808Y-83803025D01*
X60647270Y-83864657D01*
X60651358Y-83912344D01*
X60643629Y-83977750D01*
X60617568Y-84037463D01*
X60585950Y-84074277D01*
X60530315Y-84110459D01*
X60468177Y-84128956D01*
X60409411Y-84133653D01*
X59762949Y-84133653D01*
X59762949Y-84298443D01*
X60410681Y-84298443D01*
X60475332Y-84294704D01*
X60544126Y-84280888D01*
X60605780Y-84256893D01*
X60660292Y-84222719D01*
X60694858Y-84192076D01*
X60735562Y-84142442D01*
X60766268Y-84086337D01*
X60786977Y-84023758D01*
X60797688Y-83954708D01*
X60799321Y-83912344D01*
G37*
G36*
X60789160Y-84964909D02*
G01*
X60785468Y-84894916D01*
X60774392Y-84832186D01*
X60752692Y-84769387D01*
X60716751Y-84710077D01*
X60712004Y-84704228D01*
X60663376Y-84659717D01*
X60604652Y-84629773D01*
X60535832Y-84614397D01*
X60493235Y-84612149D01*
X60493235Y-84776622D01*
X60558604Y-84790512D01*
X60602143Y-84825837D01*
X60631434Y-84885371D01*
X60640854Y-84948472D01*
X60641198Y-84964909D01*
X60641198Y-85045558D01*
X60634543Y-85113044D01*
X60610324Y-85173983D01*
X60600873Y-85187170D01*
X60548371Y-85226562D01*
X60486568Y-85237655D01*
X60422025Y-85228236D01*
X60367698Y-85191144D01*
X60341751Y-85133005D01*
X60339240Y-85118586D01*
X60298598Y-84840760D01*
X60281916Y-84775655D01*
X60248569Y-84716954D01*
X60213187Y-84681367D01*
X60153548Y-84646927D01*
X60087818Y-84629320D01*
X60026170Y-84624849D01*
X59956188Y-84632008D01*
X59895198Y-84653482D01*
X59837977Y-84694132D01*
X59818197Y-84715341D01*
X59781667Y-84771668D01*
X59757093Y-84838845D01*
X59745285Y-84907667D01*
X59742628Y-84964909D01*
X59742628Y-85045558D01*
X59747292Y-85115352D01*
X59761282Y-85178359D01*
X59788170Y-85241129D01*
X59817244Y-85284012D01*
X59862858Y-85329254D01*
X59922082Y-85363735D01*
X59990298Y-85381595D01*
X60012517Y-85383712D01*
X60012517Y-85217334D01*
X59951132Y-85194153D01*
X59925200Y-85167166D01*
X59898195Y-85109599D01*
X59890591Y-85045558D01*
X59890591Y-84964909D01*
X59898005Y-84898274D01*
X59924637Y-84839236D01*
X59929327Y-84833140D01*
X59981189Y-84794885D01*
X60033473Y-84785830D01*
X60100389Y-84799448D01*
X60145953Y-84849761D01*
X60154764Y-84882672D01*
X60191278Y-85142400D01*
X60208330Y-85216126D01*
X60236468Y-85277357D01*
X60284866Y-85334338D01*
X60349226Y-85373326D01*
X60415053Y-85392070D01*
X60491965Y-85398318D01*
X60558663Y-85392543D01*
X60624258Y-85372241D01*
X60679856Y-85337321D01*
X60711369Y-85305921D01*
X60748973Y-85248098D01*
X60772067Y-85186579D01*
X60785438Y-85115535D01*
X60789160Y-85045558D01*
X60789160Y-84964909D01*
G37*
G36*
X60779000Y-85704720D02*
G01*
X60629132Y-85704720D01*
X60149683Y-86149242D01*
X60099476Y-86194131D01*
X60046314Y-86236186D01*
X59991369Y-86272428D01*
X59965524Y-86286409D01*
X59905142Y-86310982D01*
X59841037Y-86324804D01*
X59807084Y-86326734D01*
X59742260Y-86320563D01*
X59681196Y-86299522D01*
X59630863Y-86263548D01*
X59591005Y-86209863D01*
X59570628Y-86149591D01*
X59565454Y-86092407D01*
X59572028Y-86027279D01*
X59594444Y-85966096D01*
X59632768Y-85915868D01*
X59689668Y-85876397D01*
X59753515Y-85856219D01*
X59814069Y-85851095D01*
X59814069Y-85686622D01*
X59748262Y-85692307D01*
X59678202Y-85708196D01*
X59615374Y-85734051D01*
X59559778Y-85769873D01*
X59524495Y-85801563D01*
X59482801Y-85853030D01*
X59451349Y-85911304D01*
X59430136Y-85976385D01*
X59419164Y-86048272D01*
X59417492Y-86092407D01*
X59421187Y-86159037D01*
X59434837Y-86230028D01*
X59458546Y-86293757D01*
X59492313Y-86350223D01*
X59522590Y-86386109D01*
X59572186Y-86428545D01*
X59629015Y-86460558D01*
X59693075Y-86482148D01*
X59764368Y-86493315D01*
X59808354Y-86495017D01*
X59875591Y-86488826D01*
X59938995Y-86472454D01*
X60004570Y-86445850D01*
X60011247Y-86442627D01*
X60073470Y-86407484D01*
X60132196Y-86366420D01*
X60186218Y-86322904D01*
X60234481Y-86279968D01*
X60250971Y-86264501D01*
X60631037Y-85904120D01*
X60631037Y-86511528D01*
X60779000Y-86511528D01*
X60779000Y-85704720D01*
G37*
G36*
X60250653Y-86894452D02*
G01*
X60102691Y-86894452D01*
X60102691Y-87479951D01*
X60250653Y-87479951D01*
X60250653Y-86894452D01*
G37*
G36*
X60779000Y-87885101D02*
G01*
X60631037Y-87885101D01*
X60631037Y-88241671D01*
X59910912Y-88241671D01*
X59910912Y-87921615D01*
X59762949Y-87921615D01*
X59762949Y-88406144D01*
X60631037Y-88406144D01*
X60631037Y-88744616D01*
X60779000Y-88744616D01*
X60779000Y-87885101D01*
G37*
G36*
X59580060Y-88305491D02*
G01*
X59568643Y-88242807D01*
X59547674Y-88210237D01*
X59492337Y-88179007D01*
X59460039Y-88175628D01*
X59397900Y-88189147D01*
X59369547Y-88210237D01*
X59340148Y-88267018D01*
X59336208Y-88305491D01*
X59347962Y-88368064D01*
X59369547Y-88400429D01*
X59426644Y-88431945D01*
X59460039Y-88435355D01*
X59522706Y-88420314D01*
X59547674Y-88400429D01*
X59576897Y-88340685D01*
X59580060Y-88305491D01*
G37*
G36*
X60779000Y-88988785D02*
G01*
X59762949Y-88988785D01*
X59762949Y-89153258D01*
X59968699Y-89153258D01*
X59968699Y-89155163D01*
X59905866Y-89168652D01*
X59847923Y-89196310D01*
X59801686Y-89237400D01*
X59765698Y-89295982D01*
X59747300Y-89360978D01*
X59742628Y-89422194D01*
X59747156Y-89485617D01*
X59763419Y-89550807D01*
X59791509Y-89608217D01*
X59831427Y-89657849D01*
X59837248Y-89663506D01*
X59888666Y-89702819D01*
X59948617Y-89730899D01*
X60017101Y-89747747D01*
X60084024Y-89753275D01*
X60094118Y-89753363D01*
X60779000Y-89753363D01*
X60779000Y-89588572D01*
X60129362Y-89588572D01*
X60062262Y-89582929D01*
X60000772Y-89563685D01*
X59952189Y-89530785D01*
X59912306Y-89477278D01*
X59893538Y-89415794D01*
X59890591Y-89374567D01*
X59898207Y-89309304D01*
X59923888Y-89249577D01*
X59955046Y-89212634D01*
X60010651Y-89176452D01*
X60074802Y-89157955D01*
X60136665Y-89153258D01*
X60779000Y-89153258D01*
X60779000Y-88988785D01*
G37*
G36*
X60779000Y-90560806D02*
G01*
X60773198Y-90494711D01*
X60753142Y-90430464D01*
X60718761Y-90375891D01*
X60705653Y-90361406D01*
X60655037Y-90321890D01*
X60594870Y-90297009D01*
X60525153Y-90286765D01*
X60510064Y-90286472D01*
X59910912Y-90286472D01*
X59910912Y-89997533D01*
X59762949Y-89997533D01*
X59762949Y-90286472D01*
X59478455Y-90286472D01*
X59478455Y-90450945D01*
X59762949Y-90450945D01*
X59762949Y-90862445D01*
X59910912Y-90862445D01*
X59910912Y-90450945D01*
X60513556Y-90450945D01*
X60576002Y-90465202D01*
X60598333Y-90481109D01*
X60628993Y-90537250D01*
X60631037Y-90560806D01*
X60631037Y-90853237D01*
X60779000Y-90853237D01*
X60779000Y-90560806D01*
G37*
G36*
X60449256Y-91158799D02*
G01*
X60513106Y-91168979D01*
X60580290Y-91190506D01*
X60639604Y-91222426D01*
X60691048Y-91264738D01*
X60722240Y-91300446D01*
X60757026Y-91356063D01*
X60781451Y-91418244D01*
X60795514Y-91486989D01*
X60799321Y-91551137D01*
X60799247Y-91561027D01*
X60794597Y-91627361D01*
X60780428Y-91696956D01*
X60756813Y-91759923D01*
X60723752Y-91816263D01*
X60698735Y-91847217D01*
X60647141Y-91891918D01*
X60587108Y-91922454D01*
X60518637Y-91938824D01*
X60518637Y-91774351D01*
X60573329Y-91749743D01*
X60615479Y-91701957D01*
X60627672Y-91678564D01*
X60646313Y-91615211D01*
X60651358Y-91551137D01*
X60647270Y-91500731D01*
X60625808Y-91434946D01*
X60585950Y-91380949D01*
X60535211Y-91344613D01*
X60473366Y-91323360D01*
X60407506Y-91317128D01*
X60311616Y-91317128D01*
X60311616Y-91946127D01*
X60130632Y-91946127D01*
X60123261Y-91946078D01*
X60052961Y-91940274D01*
X59988863Y-91924795D01*
X59925517Y-91896594D01*
X59875124Y-91861959D01*
X59828430Y-91814907D01*
X59790891Y-91758475D01*
X59782266Y-91741600D01*
X59759643Y-91681520D01*
X59746446Y-91615548D01*
X59742628Y-91551137D01*
X59890591Y-91551137D01*
X59895714Y-91609858D01*
X59915893Y-91670850D01*
X59955364Y-91723866D01*
X60006236Y-91758755D01*
X60069790Y-91779162D01*
X60138570Y-91785146D01*
X60189690Y-91785146D01*
X60189690Y-91317128D01*
X60138570Y-91317128D01*
X60076196Y-91321975D01*
X60011490Y-91341066D01*
X59955364Y-91378408D01*
X59918486Y-91426467D01*
X59896916Y-91486381D01*
X59890591Y-91551137D01*
X59742628Y-91551137D01*
X59744325Y-91507836D01*
X59755460Y-91437216D01*
X59776987Y-91373160D01*
X59808907Y-91315667D01*
X59851219Y-91264738D01*
X59894723Y-91227834D01*
X59952815Y-91194430D01*
X60018807Y-91171418D01*
X60081661Y-91159965D01*
X60150318Y-91156147D01*
X60391630Y-91156147D01*
X60449256Y-91158799D01*
G37*
G36*
X60779000Y-92298251D02*
G01*
X59762949Y-92298251D01*
X59762949Y-92463042D01*
X59961714Y-92463042D01*
X59961714Y-92466535D01*
X59897250Y-92481982D01*
X59838222Y-92514153D01*
X59801686Y-92548771D01*
X59765698Y-92607621D01*
X59747300Y-92673334D01*
X59742628Y-92735471D01*
X59747217Y-92800784D01*
X59763698Y-92866981D01*
X59792165Y-92924168D01*
X59838518Y-92977735D01*
X59891523Y-93014964D01*
X59954649Y-93041556D01*
X60018187Y-93056098D01*
X60089473Y-93062497D01*
X60111264Y-93062829D01*
X60198581Y-93062829D01*
X60198581Y-92898039D01*
X60111899Y-92898039D01*
X60048143Y-92892814D01*
X59985900Y-92872751D01*
X59932950Y-92830326D01*
X59901181Y-92767420D01*
X59890807Y-92697199D01*
X59890591Y-92684033D01*
X59898019Y-92616035D01*
X59923068Y-92555548D01*
X59953459Y-92519560D01*
X60008141Y-92485119D01*
X60071916Y-92467513D01*
X60133808Y-92463042D01*
X60779000Y-92463042D01*
X60779000Y-92298251D01*
G37*
G36*
X60799321Y-93747711D02*
G01*
X60795670Y-93681695D01*
X60782185Y-93611166D01*
X60758763Y-93547626D01*
X60725404Y-93491075D01*
X60695493Y-93454961D01*
X60646346Y-93412278D01*
X60589754Y-93380078D01*
X60525717Y-93358362D01*
X60454236Y-93347130D01*
X60410046Y-93345418D01*
X60131903Y-93345418D01*
X60066530Y-93349269D01*
X59997176Y-93363497D01*
X59935266Y-93388208D01*
X59880801Y-93423403D01*
X59846456Y-93454961D01*
X59806000Y-93506520D01*
X59775480Y-93565067D01*
X59754897Y-93630604D01*
X59744251Y-93703129D01*
X59742628Y-93747711D01*
X59747156Y-93820505D01*
X59760739Y-93886919D01*
X59783378Y-93946951D01*
X59820338Y-94007745D01*
X59837248Y-94028394D01*
X59888844Y-94075546D01*
X59949013Y-94109996D01*
X60017756Y-94131746D01*
X60084937Y-94140358D01*
X60095071Y-94140795D01*
X60095071Y-93976322D01*
X60027633Y-93964549D01*
X59968987Y-93934361D01*
X59943616Y-93910596D01*
X59909284Y-93854610D01*
X59893128Y-93790559D01*
X59890591Y-93747711D01*
X59896668Y-93684425D01*
X59920005Y-93619532D01*
X59952824Y-93574665D01*
X60006910Y-93535193D01*
X60069513Y-93515015D01*
X60129997Y-93509891D01*
X60410046Y-93509891D01*
X60476997Y-93516217D01*
X60538897Y-93537787D01*
X60588490Y-93574665D01*
X60626800Y-93629510D01*
X60646385Y-93690376D01*
X60651358Y-93747711D01*
X60645017Y-93813229D01*
X60623637Y-93873321D01*
X60597698Y-93910596D01*
X60546819Y-93950547D01*
X60481897Y-93972367D01*
X60447196Y-93976322D01*
X60447196Y-94140795D01*
X60515315Y-94133572D01*
X60576871Y-94116624D01*
X60639183Y-94085349D01*
X60692923Y-94041373D01*
X60705018Y-94028394D01*
X60746276Y-93970726D01*
X60775745Y-93904722D01*
X60791861Y-93840132D01*
X60798952Y-93769160D01*
X60799321Y-93747711D01*
G37*
G36*
X60440383Y-94431712D02*
G01*
X60504472Y-94441743D01*
X60571708Y-94462956D01*
X60630830Y-94494409D01*
X60681840Y-94536102D01*
X60712757Y-94571347D01*
X60747238Y-94626758D01*
X60771448Y-94689249D01*
X60785387Y-94758821D01*
X60789160Y-94824089D01*
X60787483Y-94868179D01*
X60776479Y-94939773D01*
X60755203Y-95004288D01*
X60723657Y-95061722D01*
X60681840Y-95112076D01*
X60638614Y-95148440D01*
X60580650Y-95181356D01*
X60514573Y-95204031D01*
X60451478Y-95215317D01*
X60382422Y-95219078D01*
X60149366Y-95219078D01*
X60090880Y-95216489D01*
X60026345Y-95206547D01*
X59958842Y-95185523D01*
X59899725Y-95154350D01*
X59848996Y-95113028D01*
X59818353Y-95078011D01*
X59784178Y-95022685D01*
X59760183Y-94960005D01*
X59746368Y-94889971D01*
X59742628Y-94824089D01*
X59890591Y-94824089D01*
X59894401Y-94875149D01*
X59914404Y-94940801D01*
X59951554Y-94993325D01*
X60000257Y-95028214D01*
X60062541Y-95048621D01*
X60130950Y-95054605D01*
X60400838Y-95054605D01*
X60462911Y-95049758D01*
X60526431Y-95030668D01*
X60580235Y-94993325D01*
X60609704Y-94955162D01*
X60633994Y-94892793D01*
X60641198Y-94824089D01*
X60637387Y-94773802D01*
X60617384Y-94708642D01*
X60580235Y-94655806D01*
X60531532Y-94620374D01*
X60469247Y-94599650D01*
X60400838Y-94593572D01*
X60130950Y-94593572D01*
X60068877Y-94598495D01*
X60005358Y-94617882D01*
X59951554Y-94655806D01*
X59922084Y-94694278D01*
X59897794Y-94756357D01*
X59890591Y-94824089D01*
X59742628Y-94824089D01*
X59744290Y-94779567D01*
X59755197Y-94707432D01*
X59776284Y-94642651D01*
X59807550Y-94585223D01*
X59848996Y-94535150D01*
X59891965Y-94499109D01*
X59949883Y-94466486D01*
X60016188Y-94444013D01*
X60079696Y-94432828D01*
X60149366Y-94429099D01*
X60382422Y-94429099D01*
X60440383Y-94431712D01*
G37*
G36*
X60779000Y-95476266D02*
G01*
X59762949Y-95476266D01*
X59762949Y-95618831D01*
X59895988Y-95618831D01*
X59895988Y-95622323D01*
X59834152Y-95640422D01*
X59785175Y-95676301D01*
X59751977Y-95730858D01*
X59742628Y-95790607D01*
X59753650Y-95855042D01*
X59781683Y-95902372D01*
X59830726Y-95943694D01*
X59887098Y-95968098D01*
X59887098Y-95970003D01*
X59824138Y-95992548D01*
X59781683Y-96027473D01*
X59750104Y-96085675D01*
X59742628Y-96141779D01*
X59752898Y-96209068D01*
X59783707Y-96265193D01*
X59815657Y-96296409D01*
X59871042Y-96329129D01*
X59936782Y-96348267D01*
X60005531Y-96353879D01*
X60779000Y-96353879D01*
X60779000Y-96200519D01*
X59998546Y-96200519D01*
X59934618Y-96190109D01*
X59901069Y-96170990D01*
X59866836Y-96114850D01*
X59864554Y-96090659D01*
X59884558Y-96027791D01*
X59900116Y-96011915D01*
X59960883Y-95985556D01*
X59996641Y-95982704D01*
X60779000Y-95982704D01*
X60779000Y-95847442D01*
X59998546Y-95847442D01*
X59934618Y-95837144D01*
X59901069Y-95818230D01*
X59866836Y-95762983D01*
X59864554Y-95739487D01*
X59882926Y-95677156D01*
X59900116Y-95658838D01*
X59960883Y-95632479D01*
X59996641Y-95629626D01*
X60779000Y-95629626D01*
X60779000Y-95476266D01*
G37*
%LPC*%
D11*
%TO.C,C2*%
X55669346Y-40269213D03*
X55669346Y-45269213D03*
%TD*%
%TO.C,C1*%
X65037233Y-32852856D03*
X65037233Y-27852856D03*
%TD*%
%TO.C,R4*%
X65031734Y-35190000D03*
D12*
X65031734Y-42810000D03*
%TD*%
D13*
%TO.C,J2*%
X48787370Y-27592601D03*
D14*
X46247370Y-27592601D03*
X43707370Y-27592601D03*
X41167370Y-27592601D03*
X38627370Y-27592601D03*
%TD*%
D15*
%TO.C,D3*%
X58376591Y-37205214D03*
D16*
X58376591Y-27045214D03*
%TD*%
D17*
%TO.C,RV1*%
X53823273Y-28247157D03*
X53823273Y-30787157D03*
X53823273Y-33327157D03*
%TD*%
D11*
%TO.C,R1*%
X40000000Y-86190000D03*
D12*
X40000000Y-93810000D03*
%TD*%
D18*
%TO.C,Q1*%
X59137509Y-42719059D03*
D19*
X60407509Y-42719059D03*
X61677509Y-42719059D03*
%TD*%
D20*
%TO.C,C3*%
X41700494Y-47941934D03*
D11*
X39200494Y-47941934D03*
%TD*%
%TO.C,R2*%
X61778891Y-27808645D03*
D12*
X61778891Y-35428645D03*
%TD*%
D11*
%TO.C,R6*%
X52500000Y-45260066D03*
D12*
X52500000Y-37640066D03*
%TD*%
D11*
%TO.C,R3*%
X49321573Y-38885597D03*
D12*
X49321573Y-31265597D03*
%TD*%
D11*
%TO.C,R5*%
X40233203Y-42215530D03*
D12*
X47853203Y-42215530D03*
%TD*%
D21*
%TO.C,IN+*%
X46840533Y-89832977D03*
X64620533Y-89832977D03*
X64620533Y-49602977D03*
X46835489Y-49593646D03*
%TD*%
D15*
%TO.C,D1*%
X39269119Y-69996698D03*
D22*
X39269119Y-73846698D03*
X39269119Y-77696698D03*
X39269119Y-81546698D03*
%TD*%
D23*
%TO.C,J1*%
X53974922Y-96978417D03*
D24*
X50014922Y-96978417D03*
%TD*%
D20*
%TO.C,U1*%
X45996719Y-31312570D03*
D12*
X43456719Y-31312570D03*
X40916719Y-31312570D03*
X38376719Y-31312570D03*
X38376719Y-38932570D03*
X40916719Y-38932570D03*
X43456719Y-38932570D03*
X45996719Y-38932570D03*
%TD*%
%LPD*%
M02*
