%TF.GenerationSoftware,KiCad,Pcbnew,8.0.7-8.0.7-0~ubuntu22.04.1*%
%TF.CreationDate,2024-12-23T11:54:55+01:00*%
%TF.ProjectId,repeater_v2,72657065-6174-4657-925f-76322e6b6963,rev?*%
%TF.SameCoordinates,Original*%
%TF.FileFunction,Copper,L1,Top*%
%TF.FilePolarity,Positive*%
%FSLAX46Y46*%
G04 Gerber Fmt 4.6, Leading zero omitted, Abs format (unit mm)*
G04 Created by KiCad (PCBNEW 8.0.7-8.0.7-0~ubuntu22.04.1) date 2024-12-23 11:54:55*
%MOMM*%
%LPD*%
G01*
G04 APERTURE LIST*
G04 Aperture macros list*
%AMRoundRect*
0 Rectangle with rounded corners*
0 $1 Rounding radius*
0 $2 $3 $4 $5 $6 $7 $8 $9 X,Y pos of 4 corners*
0 Add a 4 corners polygon primitive as box body*
4,1,4,$2,$3,$4,$5,$6,$7,$8,$9,$2,$3,0*
0 Add four circle primitives for the rounded corners*
1,1,$1+$1,$2,$3*
1,1,$1+$1,$4,$5*
1,1,$1+$1,$6,$7*
1,1,$1+$1,$8,$9*
0 Add four rect primitives between the rounded corners*
20,1,$1+$1,$2,$3,$4,$5,0*
20,1,$1+$1,$4,$5,$6,$7,0*
20,1,$1+$1,$6,$7,$8,$9,0*
20,1,$1+$1,$8,$9,$2,$3,0*%
G04 Aperture macros list end*
%TA.AperFunction,ComponentPad*%
%ADD10C,1.600000*%
%TD*%
%TA.AperFunction,ComponentPad*%
%ADD11O,1.600000X1.600000*%
%TD*%
%TA.AperFunction,ComponentPad*%
%ADD12R,1.700000X1.700000*%
%TD*%
%TA.AperFunction,ComponentPad*%
%ADD13O,1.700000X1.700000*%
%TD*%
%TA.AperFunction,ComponentPad*%
%ADD14R,2.200000X2.200000*%
%TD*%
%TA.AperFunction,ComponentPad*%
%ADD15O,2.200000X2.200000*%
%TD*%
%TA.AperFunction,ComponentPad*%
%ADD16C,1.440000*%
%TD*%
%TA.AperFunction,ComponentPad*%
%ADD17R,1.050000X1.500000*%
%TD*%
%TA.AperFunction,ComponentPad*%
%ADD18O,1.050000X1.500000*%
%TD*%
%TA.AperFunction,ComponentPad*%
%ADD19R,1.600000X1.600000*%
%TD*%
%TA.AperFunction,ComponentPad*%
%ADD20C,2.540000*%
%TD*%
%TA.AperFunction,ComponentPad*%
%ADD21C,2.200000*%
%TD*%
%TA.AperFunction,ComponentPad*%
%ADD22RoundRect,0.250001X0.949999X0.949999X-0.949999X0.949999X-0.949999X-0.949999X0.949999X-0.949999X0*%
%TD*%
%TA.AperFunction,ComponentPad*%
%ADD23C,2.400000*%
%TD*%
%TA.AperFunction,Conductor*%
%ADD24C,0.250000*%
%TD*%
G04 APERTURE END LIST*
D10*
%TO.P,C2,1*%
%TO.N,Net-(U1-PB2)*%
X55669346Y-40269213D03*
%TO.P,C2,2*%
%TO.N,Net-(Q1-B)*%
X55669346Y-45269213D03*
%TD*%
%TO.P,C1,1*%
%TO.N,Net-(D1-+)*%
X65037233Y-32852856D03*
%TO.P,C1,2*%
%TO.N,Net-(C1-Pad2)*%
X65037233Y-27852856D03*
%TD*%
%TO.P,R4,1*%
%TO.N,Net-(D1-+)*%
X65031734Y-35190000D03*
D11*
%TO.P,R4,2*%
%TO.N,Net-(Q1-C)*%
X65031734Y-42810000D03*
%TD*%
D12*
%TO.P,J2,1,Pin_1*%
%TO.N,+5V*%
X48787370Y-27592601D03*
D13*
%TO.P,J2,2,Pin_2*%
%TO.N,GND*%
X46247370Y-27592601D03*
%TO.P,J2,3,Pin_3*%
%TO.N,UART TX*%
X43707370Y-27592601D03*
%TO.P,J2,4,Pin_4*%
%TO.N,UART RX*%
X41167370Y-27592601D03*
%TO.P,J2,5,Pin_5*%
%TO.N,unconnected-(J2-Pin_5-Pad5)*%
X38627370Y-27592601D03*
%TD*%
D14*
%TO.P,D3,1,K*%
%TO.N,Net-(D3-K)*%
X58376591Y-37205214D03*
D15*
%TO.P,D3,2,A*%
%TO.N,GND*%
X58376591Y-27045214D03*
%TD*%
D16*
%TO.P,RV1,1,1*%
%TO.N,+5V*%
X53823273Y-28247157D03*
%TO.P,RV1,2,2*%
%TO.N,REF VOLTAGE*%
X53823273Y-30787157D03*
%TO.P,RV1,3,3*%
%TO.N,unconnected-(RV1-Pad3)*%
X53823273Y-33327157D03*
%TD*%
D10*
%TO.P,R1,1*%
%TO.N,Net-(D1-+)*%
X40000000Y-86190000D03*
D11*
%TO.P,R1,2*%
%TO.N,Net-(IN1-Pin_1)*%
X40000000Y-93810000D03*
%TD*%
D17*
%TO.P,Q1,1,E*%
%TO.N,GND*%
X59137509Y-42719059D03*
D18*
%TO.P,Q1,2,B*%
%TO.N,Net-(Q1-B)*%
X60407509Y-42719059D03*
%TO.P,Q1,3,C*%
%TO.N,Net-(Q1-C)*%
X61677509Y-42719059D03*
%TD*%
D19*
%TO.P,C3,1*%
%TO.N,+5V*%
X41700494Y-47941934D03*
D10*
%TO.P,C3,2*%
%TO.N,GND*%
X39200494Y-47941934D03*
%TD*%
%TO.P,R2,1*%
%TO.N,Net-(C1-Pad2)*%
X61778891Y-27808645D03*
D11*
%TO.P,R2,2*%
%TO.N,GND*%
X61778891Y-35428645D03*
%TD*%
D10*
%TO.P,R6,1*%
%TO.N,Net-(Q1-B)*%
X52500000Y-45260066D03*
D11*
%TO.P,R6,2*%
%TO.N,GND*%
X52500000Y-37640066D03*
%TD*%
D10*
%TO.P,R3,1*%
%TO.N,Net-(D3-K)*%
X49321573Y-38885597D03*
D11*
%TO.P,R3,2*%
%TO.N,Net-(C1-Pad2)*%
X49321573Y-31265597D03*
%TD*%
D10*
%TO.P,R5,1*%
%TO.N,REF VOLTAGE*%
X40233203Y-42215530D03*
D11*
%TO.P,R5,2*%
%TO.N,GND*%
X47853203Y-42215530D03*
%TD*%
D20*
%TO.P,IN+,1*%
%TO.N,Net-(J3-Pin_1)*%
X46840533Y-89832977D03*
%TO.P,IN+,2*%
%TO.N,GND*%
X64620533Y-89832977D03*
%TO.P,IN+,3*%
X64620533Y-49602977D03*
%TO.P,IN+,4*%
%TO.N,+5V*%
X46835489Y-49593646D03*
%TD*%
D14*
%TO.P,D1,1,+*%
%TO.N,Net-(D1-+)*%
X39269119Y-69996698D03*
D21*
%TO.P,D1,2*%
%TO.N,Net-(J1-Pin_1)*%
X39269119Y-73846698D03*
%TO.P,D1,3*%
%TO.N,Net-(J1-Pin_2)*%
X39269119Y-77696698D03*
%TO.P,D1,4,-*%
%TO.N,GND*%
X39269119Y-81546698D03*
%TD*%
D22*
%TO.P,J1,1,Pin_1*%
%TO.N,Net-(J1-Pin_1)*%
X53974922Y-96978417D03*
D23*
%TO.P,J1,2,Pin_2*%
%TO.N,Net-(J1-Pin_2)*%
X50014922Y-96978417D03*
%TD*%
D19*
%TO.P,U1,1,~{RESET}/PB5*%
%TO.N,unconnected-(U1-~{RESET}{slash}PB5-Pad1)*%
X45996719Y-31312570D03*
D11*
%TO.P,U1,2,XTAL1/PB3*%
%TO.N,UART TX*%
X43456719Y-31312570D03*
%TO.P,U1,3,XTAL2/PB4*%
%TO.N,UART RX*%
X40916719Y-31312570D03*
%TO.P,U1,4,GND*%
%TO.N,GND*%
X38376719Y-31312570D03*
%TO.P,U1,5,AREF/PB0*%
%TO.N,Net-(D3-K)*%
X38376719Y-38932570D03*
%TO.P,U1,6,PB1*%
%TO.N,REF VOLTAGE*%
X40916719Y-38932570D03*
%TO.P,U1,7,PB2*%
%TO.N,Net-(U1-PB2)*%
X43456719Y-38932570D03*
%TO.P,U1,8,VCC*%
%TO.N,+5V*%
X45996719Y-38932570D03*
%TD*%
D24*
%TO.N,Net-(D1-+)*%
X43000000Y-83190000D02*
X40000000Y-86190000D01*
X39269119Y-69996698D02*
X43000000Y-73727579D01*
X43000000Y-73727579D02*
X43000000Y-83190000D01*
X65037233Y-32852856D02*
X65037233Y-35184501D01*
%TO.N,UART TX*%
X43456719Y-31312570D02*
X43456719Y-27843252D01*
%TO.N,UART RX*%
X40916719Y-31312570D02*
X40916719Y-27843252D01*
%TO.N,Net-(Q1-B)*%
X58857355Y-45269213D02*
X60407509Y-43719059D01*
X60407509Y-43719059D02*
X60407509Y-42719059D01*
X52500000Y-45260066D02*
X55660199Y-45260066D01*
X55669346Y-45269213D02*
X58857355Y-45269213D01*
%TO.N,Net-(Q1-C)*%
X61677509Y-42719059D02*
X64940793Y-42719059D01*
%TO.N,REF VOLTAGE*%
X50639124Y-33971306D02*
X53823273Y-30787157D01*
X40000000Y-39849289D02*
X40916719Y-38932570D01*
X40916719Y-38932570D02*
X45877983Y-33971306D01*
X45877983Y-33971306D02*
X50639124Y-33971306D01*
X40000000Y-41912829D02*
X40000000Y-39849289D01*
%TO.N,Net-(U1-PB2)*%
X46481339Y-35907950D02*
X53330874Y-35907950D01*
X53330874Y-35907950D02*
X55669346Y-38246422D01*
X55669346Y-38246422D02*
X55669346Y-40269213D01*
X43456719Y-38932570D02*
X46481339Y-35907950D01*
%TO.N,Net-(C1-Pad2)*%
X60014887Y-29572649D02*
X51014521Y-29572649D01*
X65037233Y-27852856D02*
X61823102Y-27852856D01*
X51014521Y-29572649D02*
X49321573Y-31265597D01*
X61778891Y-27808645D02*
X60014887Y-29572649D01*
%TO.N,Net-(D3-K)*%
X38376719Y-42449368D02*
X39687106Y-43759755D01*
X58376591Y-39853974D02*
X56426833Y-41803732D01*
X38376719Y-38932570D02*
X38376719Y-42449368D01*
X56426833Y-41803732D02*
X52239708Y-41803732D01*
X52239708Y-41803732D02*
X49321573Y-38885597D01*
X49321573Y-42696203D02*
X49321573Y-38885597D01*
X39687106Y-43759755D02*
X48258021Y-43759755D01*
X48258021Y-43759755D02*
X49321573Y-42696203D01*
X58376591Y-37205214D02*
X58376591Y-39853974D01*
%TD*%
M02*
