%TF.GenerationSoftware,KiCad,Pcbnew,6.0.2+dfsg-1*%
%TF.CreationDate,2023-07-16T21:42:27+02:00*%
%TF.ProjectId,buzzer,62757a7a-6572-42e6-9b69-6361645f7063,rev?*%
%TF.SameCoordinates,Original*%
%TF.FileFunction,Legend,Top*%
%TF.FilePolarity,Positive*%
%FSLAX46Y46*%
G04 Gerber Fmt 4.6, Leading zero omitted, Abs format (unit mm)*
G04 Created by KiCad (PCBNEW 6.0.2+dfsg-1) date 2023-07-16 21:42:27*
%MOMM*%
%LPD*%
G01*
G04 APERTURE LIST*
%ADD10C,0.150000*%
%ADD11C,0.120000*%
G04 APERTURE END LIST*
D10*
X51093736Y-63573335D02*
X50093736Y-63573335D01*
X50093736Y-63335240D01*
X50141356Y-63192383D01*
X50236594Y-63097145D01*
X50331832Y-63049526D01*
X50522308Y-63001907D01*
X50665165Y-63001907D01*
X50855641Y-63049526D01*
X50950879Y-63097145D01*
X51046117Y-63192383D01*
X51093736Y-63335240D01*
X51093736Y-63573335D01*
X51046117Y-62192383D02*
X51093736Y-62287621D01*
X51093736Y-62478097D01*
X51046117Y-62573335D01*
X50950879Y-62620954D01*
X50569927Y-62620954D01*
X50474689Y-62573335D01*
X50427070Y-62478097D01*
X50427070Y-62287621D01*
X50474689Y-62192383D01*
X50569927Y-62144764D01*
X50665165Y-62144764D01*
X50760403Y-62620954D01*
X51046117Y-61763811D02*
X51093736Y-61668573D01*
X51093736Y-61478097D01*
X51046117Y-61382859D01*
X50950879Y-61335240D01*
X50903260Y-61335240D01*
X50808022Y-61382859D01*
X50760403Y-61478097D01*
X50760403Y-61620954D01*
X50712784Y-61716192D01*
X50617546Y-61763811D01*
X50569927Y-61763811D01*
X50474689Y-61716192D01*
X50427070Y-61620954D01*
X50427070Y-61478097D01*
X50474689Y-61382859D01*
X51093736Y-60906669D02*
X50427070Y-60906669D01*
X50093736Y-60906669D02*
X50141356Y-60954288D01*
X50188975Y-60906669D01*
X50141356Y-60859050D01*
X50093736Y-60906669D01*
X50188975Y-60906669D01*
X50427070Y-60001907D02*
X51236594Y-60001907D01*
X51331832Y-60049526D01*
X51379451Y-60097145D01*
X51427070Y-60192383D01*
X51427070Y-60335240D01*
X51379451Y-60430478D01*
X51046117Y-60001907D02*
X51093736Y-60097145D01*
X51093736Y-60287621D01*
X51046117Y-60382859D01*
X50998498Y-60430478D01*
X50903260Y-60478097D01*
X50617546Y-60478097D01*
X50522308Y-60430478D01*
X50474689Y-60382859D01*
X50427070Y-60287621D01*
X50427070Y-60097145D01*
X50474689Y-60001907D01*
X50427070Y-59525716D02*
X51093736Y-59525716D01*
X50522308Y-59525716D02*
X50474689Y-59478097D01*
X50427070Y-59382859D01*
X50427070Y-59240002D01*
X50474689Y-59144764D01*
X50569927Y-59097145D01*
X51093736Y-59097145D01*
X51046117Y-58240002D02*
X51093736Y-58335240D01*
X51093736Y-58525716D01*
X51046117Y-58620954D01*
X50950879Y-58668573D01*
X50569927Y-58668573D01*
X50474689Y-58620954D01*
X50427070Y-58525716D01*
X50427070Y-58335240D01*
X50474689Y-58240002D01*
X50569927Y-58192383D01*
X50665165Y-58192383D01*
X50760403Y-58668573D01*
X51093736Y-57335240D02*
X50093736Y-57335240D01*
X51046117Y-57335240D02*
X51093736Y-57430478D01*
X51093736Y-57620954D01*
X51046117Y-57716192D01*
X50998498Y-57763811D01*
X50903260Y-57811431D01*
X50617546Y-57811431D01*
X50522308Y-57763811D01*
X50474689Y-57716192D01*
X50427070Y-57620954D01*
X50427070Y-57430478D01*
X50474689Y-57335240D01*
X51093736Y-56097145D02*
X50093736Y-56097145D01*
X50474689Y-56097145D02*
X50427070Y-56001907D01*
X50427070Y-55811431D01*
X50474689Y-55716192D01*
X50522308Y-55668573D01*
X50617546Y-55620954D01*
X50903260Y-55620954D01*
X50998498Y-55668573D01*
X51046117Y-55716192D01*
X51093736Y-55811431D01*
X51093736Y-56001907D01*
X51046117Y-56097145D01*
X50427070Y-55287621D02*
X51093736Y-55049526D01*
X50427070Y-54811431D02*
X51093736Y-55049526D01*
X51331832Y-55144764D01*
X51379451Y-55192383D01*
X51427070Y-55287621D01*
X50427070Y-53668573D02*
X51427070Y-53668573D01*
X50474689Y-53668573D02*
X50427070Y-53573335D01*
X50427070Y-53382859D01*
X50474689Y-53287621D01*
X50522308Y-53240002D01*
X50617546Y-53192383D01*
X50903260Y-53192383D01*
X50998498Y-53240002D01*
X51046117Y-53287621D01*
X51093736Y-53382859D01*
X51093736Y-53573335D01*
X51046117Y-53668573D01*
X51093736Y-52620954D02*
X51046117Y-52716192D01*
X50950879Y-52763811D01*
X50093736Y-52763811D01*
X50427070Y-51811431D02*
X51093736Y-51811431D01*
X50427070Y-52240002D02*
X50950879Y-52240002D01*
X51046117Y-52192383D01*
X51093736Y-52097145D01*
X51093736Y-51954288D01*
X51046117Y-51859050D01*
X50998498Y-51811431D01*
X51046117Y-51382859D02*
X51093736Y-51287621D01*
X51093736Y-51097145D01*
X51046117Y-51001907D01*
X50950879Y-50954288D01*
X50903260Y-50954288D01*
X50808022Y-51001907D01*
X50760403Y-51097145D01*
X50760403Y-51240002D01*
X50712784Y-51335240D01*
X50617546Y-51382859D01*
X50569927Y-51382859D01*
X50474689Y-51335240D01*
X50427070Y-51240002D01*
X50427070Y-51097145D01*
X50474689Y-51001907D01*
X50427070Y-50620954D02*
X51093736Y-50382859D01*
X50427070Y-50144764D01*
X51093736Y-49763811D02*
X50427070Y-49763811D01*
X50093736Y-49763811D02*
X50141356Y-49811431D01*
X50188975Y-49763811D01*
X50141356Y-49716192D01*
X50093736Y-49763811D01*
X50188975Y-49763811D01*
X51046117Y-48859050D02*
X51093736Y-48954288D01*
X51093736Y-49144764D01*
X51046117Y-49240002D01*
X50998498Y-49287621D01*
X50903260Y-49335240D01*
X50617546Y-49335240D01*
X50522308Y-49287621D01*
X50474689Y-49240002D01*
X50427070Y-49144764D01*
X50427070Y-48954288D01*
X50474689Y-48859050D01*
X51474689Y-47382859D02*
X51427070Y-47430478D01*
X51284213Y-47525716D01*
X51188975Y-47573335D01*
X51046117Y-47620954D01*
X50808022Y-47668573D01*
X50617546Y-47668573D01*
X50379451Y-47620954D01*
X50236594Y-47573335D01*
X50141356Y-47525716D01*
X49998498Y-47430478D01*
X49950879Y-47382859D01*
X51046117Y-46573335D02*
X51093736Y-46668573D01*
X51093736Y-46859050D01*
X51046117Y-46954288D01*
X50998498Y-47001907D01*
X50903260Y-47049526D01*
X50617546Y-47049526D01*
X50522308Y-47001907D01*
X50474689Y-46954288D01*
X50427070Y-46859050D01*
X50427070Y-46668573D01*
X50474689Y-46573335D01*
X51474689Y-46240002D02*
X51427070Y-46192383D01*
X51284213Y-46097145D01*
X51188975Y-46049526D01*
X51046117Y-46001907D01*
X50808022Y-45954288D01*
X50617546Y-45954288D01*
X50379451Y-46001907D01*
X50236594Y-46049526D01*
X50141356Y-46097145D01*
X49998498Y-46192383D01*
X49950879Y-46240002D01*
X50188975Y-44763811D02*
X50141356Y-44716192D01*
X50093736Y-44620954D01*
X50093736Y-44382859D01*
X50141356Y-44287621D01*
X50188975Y-44240002D01*
X50284213Y-44192383D01*
X50379451Y-44192383D01*
X50522308Y-44240002D01*
X51093736Y-44811431D01*
X51093736Y-44192383D01*
X50093736Y-43573335D02*
X50093736Y-43478097D01*
X50141356Y-43382859D01*
X50188975Y-43335240D01*
X50284213Y-43287621D01*
X50474689Y-43240002D01*
X50712784Y-43240002D01*
X50903260Y-43287621D01*
X50998498Y-43335240D01*
X51046117Y-43382859D01*
X51093736Y-43478097D01*
X51093736Y-43573335D01*
X51046117Y-43668573D01*
X50998498Y-43716192D01*
X50903260Y-43763811D01*
X50712784Y-43811431D01*
X50474689Y-43811431D01*
X50284213Y-43763811D01*
X50188975Y-43716192D01*
X50141356Y-43668573D01*
X50093736Y-43573335D01*
X50188975Y-42859050D02*
X50141356Y-42811431D01*
X50093736Y-42716192D01*
X50093736Y-42478097D01*
X50141356Y-42382859D01*
X50188975Y-42335240D01*
X50284213Y-42287621D01*
X50379451Y-42287621D01*
X50522308Y-42335240D01*
X51093736Y-42906669D01*
X51093736Y-42287621D01*
X50093736Y-41954288D02*
X50093736Y-41335240D01*
X50474689Y-41668573D01*
X50474689Y-41525716D01*
X50522308Y-41430478D01*
X50569927Y-41382859D01*
X50665165Y-41335240D01*
X50903260Y-41335240D01*
X50998498Y-41382859D01*
X51046117Y-41430478D01*
X51093736Y-41525716D01*
X51093736Y-41811431D01*
X51046117Y-41906669D01*
X50998498Y-41954288D01*
X53647070Y-63144764D02*
X54456594Y-63144764D01*
X54551832Y-63192383D01*
X54599451Y-63240002D01*
X54647070Y-63335240D01*
X54647070Y-63478097D01*
X54599451Y-63573335D01*
X54266117Y-63144764D02*
X54313736Y-63240002D01*
X54313736Y-63430478D01*
X54266117Y-63525716D01*
X54218498Y-63573335D01*
X54123260Y-63620954D01*
X53837546Y-63620954D01*
X53742308Y-63573335D01*
X53694689Y-63525716D01*
X53647070Y-63430478D01*
X53647070Y-63240002D01*
X53694689Y-63144764D01*
X54313736Y-62668573D02*
X53647070Y-62668573D01*
X53313736Y-62668573D02*
X53361356Y-62716192D01*
X53408975Y-62668573D01*
X53361356Y-62620954D01*
X53313736Y-62668573D01*
X53408975Y-62668573D01*
X53647070Y-62335240D02*
X53647070Y-61954288D01*
X53313736Y-62192383D02*
X54170879Y-62192383D01*
X54266117Y-62144764D01*
X54313736Y-62049526D01*
X54313736Y-61954288D01*
X54313736Y-61620954D02*
X53313736Y-61620954D01*
X54313736Y-61192383D02*
X53789927Y-61192383D01*
X53694689Y-61240002D01*
X53647070Y-61335240D01*
X53647070Y-61478097D01*
X53694689Y-61573335D01*
X53742308Y-61620954D01*
X53647070Y-60287621D02*
X54313736Y-60287621D01*
X53647070Y-60716192D02*
X54170879Y-60716192D01*
X54266117Y-60668573D01*
X54313736Y-60573335D01*
X54313736Y-60430478D01*
X54266117Y-60335240D01*
X54218498Y-60287621D01*
X54313736Y-59811431D02*
X53313736Y-59811431D01*
X53694689Y-59811431D02*
X53647070Y-59716192D01*
X53647070Y-59525716D01*
X53694689Y-59430478D01*
X53742308Y-59382859D01*
X53837546Y-59335240D01*
X54123260Y-59335240D01*
X54218498Y-59382859D01*
X54266117Y-59430478D01*
X54313736Y-59525716D01*
X54313736Y-59716192D01*
X54266117Y-59811431D01*
X54218498Y-58906669D02*
X54266117Y-58859050D01*
X54313736Y-58906669D01*
X54266117Y-58954288D01*
X54218498Y-58906669D01*
X54313736Y-58906669D01*
X54266117Y-58001907D02*
X54313736Y-58097145D01*
X54313736Y-58287621D01*
X54266117Y-58382859D01*
X54218498Y-58430478D01*
X54123260Y-58478097D01*
X53837546Y-58478097D01*
X53742308Y-58430478D01*
X53694689Y-58382859D01*
X53647070Y-58287621D01*
X53647070Y-58097145D01*
X53694689Y-58001907D01*
X54313736Y-57430478D02*
X54266117Y-57525716D01*
X54218498Y-57573335D01*
X54123260Y-57620954D01*
X53837546Y-57620954D01*
X53742308Y-57573335D01*
X53694689Y-57525716D01*
X53647070Y-57430478D01*
X53647070Y-57287621D01*
X53694689Y-57192383D01*
X53742308Y-57144764D01*
X53837546Y-57097145D01*
X54123260Y-57097145D01*
X54218498Y-57144764D01*
X54266117Y-57192383D01*
X54313736Y-57287621D01*
X54313736Y-57430478D01*
X54313736Y-56668573D02*
X53647070Y-56668573D01*
X53742308Y-56668573D02*
X53694689Y-56620954D01*
X53647070Y-56525716D01*
X53647070Y-56382859D01*
X53694689Y-56287621D01*
X53789927Y-56240002D01*
X54313736Y-56240002D01*
X53789927Y-56240002D02*
X53694689Y-56192383D01*
X53647070Y-56097145D01*
X53647070Y-55954288D01*
X53694689Y-55859050D01*
X53789927Y-55811431D01*
X54313736Y-55811431D01*
X53266117Y-54620954D02*
X54551832Y-55478097D01*
X53647070Y-54287621D02*
X54647070Y-54287621D01*
X53694689Y-54287621D02*
X53647070Y-54192383D01*
X53647070Y-54001907D01*
X53694689Y-53906669D01*
X53742308Y-53859050D01*
X53837546Y-53811431D01*
X54123260Y-53811431D01*
X54218498Y-53859050D01*
X54266117Y-53906669D01*
X54313736Y-54001907D01*
X54313736Y-54192383D01*
X54266117Y-54287621D01*
X54313736Y-53240002D02*
X54266117Y-53335240D01*
X54170879Y-53382859D01*
X53313736Y-53382859D01*
X53647070Y-52430478D02*
X54313736Y-52430478D01*
X53647070Y-52859050D02*
X54170879Y-52859050D01*
X54266117Y-52811431D01*
X54313736Y-52716192D01*
X54313736Y-52573335D01*
X54266117Y-52478097D01*
X54218498Y-52430478D01*
X54266117Y-52001907D02*
X54313736Y-51906669D01*
X54313736Y-51716192D01*
X54266117Y-51620954D01*
X54170879Y-51573335D01*
X54123260Y-51573335D01*
X54028022Y-51620954D01*
X53980403Y-51716192D01*
X53980403Y-51859050D01*
X53932784Y-51954288D01*
X53837546Y-52001907D01*
X53789927Y-52001907D01*
X53694689Y-51954288D01*
X53647070Y-51859050D01*
X53647070Y-51716192D01*
X53694689Y-51620954D01*
X53647070Y-51240002D02*
X54313736Y-51001907D01*
X53647070Y-50763811D01*
X54313736Y-50382859D02*
X53647070Y-50382859D01*
X53313736Y-50382859D02*
X53361356Y-50430478D01*
X53408975Y-50382859D01*
X53361356Y-50335240D01*
X53313736Y-50382859D01*
X53408975Y-50382859D01*
X54266117Y-49478097D02*
X54313736Y-49573335D01*
X54313736Y-49763811D01*
X54266117Y-49859050D01*
X54218498Y-49906669D01*
X54123260Y-49954288D01*
X53837546Y-49954288D01*
X53742308Y-49906669D01*
X53694689Y-49859050D01*
X53647070Y-49763811D01*
X53647070Y-49573335D01*
X53694689Y-49478097D01*
X53266117Y-48335240D02*
X54551832Y-49192383D01*
X54266117Y-48049526D02*
X54313736Y-47954288D01*
X54313736Y-47763811D01*
X54266117Y-47668573D01*
X54170879Y-47620954D01*
X54123260Y-47620954D01*
X54028022Y-47668573D01*
X53980403Y-47763811D01*
X53980403Y-47906669D01*
X53932784Y-48001907D01*
X53837546Y-48049526D01*
X53789927Y-48049526D01*
X53694689Y-48001907D01*
X53647070Y-47906669D01*
X53647070Y-47763811D01*
X53694689Y-47668573D01*
X54313736Y-47192383D02*
X53647070Y-47192383D01*
X53313736Y-47192383D02*
X53361356Y-47240002D01*
X53408975Y-47192383D01*
X53361356Y-47144764D01*
X53313736Y-47192383D01*
X53408975Y-47192383D01*
X54313736Y-46716192D02*
X53647070Y-46716192D01*
X53742308Y-46716192D02*
X53694689Y-46668573D01*
X53647070Y-46573335D01*
X53647070Y-46430478D01*
X53694689Y-46335240D01*
X53789927Y-46287621D01*
X54313736Y-46287621D01*
X53789927Y-46287621D02*
X53694689Y-46240002D01*
X53647070Y-46144764D01*
X53647070Y-46001907D01*
X53694689Y-45906669D01*
X53789927Y-45859050D01*
X54313736Y-45859050D01*
X53647070Y-45382859D02*
X54647070Y-45382859D01*
X53694689Y-45382859D02*
X53647070Y-45287621D01*
X53647070Y-45097145D01*
X53694689Y-45001907D01*
X53742308Y-44954288D01*
X53837546Y-44906669D01*
X54123260Y-44906669D01*
X54218498Y-44954288D01*
X54266117Y-45001907D01*
X54313736Y-45097145D01*
X54313736Y-45287621D01*
X54266117Y-45382859D01*
X54313736Y-44335240D02*
X54266117Y-44430478D01*
X54170879Y-44478097D01*
X53313736Y-44478097D01*
X54266117Y-43573335D02*
X54313736Y-43668573D01*
X54313736Y-43859050D01*
X54266117Y-43954288D01*
X54170879Y-44001907D01*
X53789927Y-44001907D01*
X53694689Y-43954288D01*
X53647070Y-43859050D01*
X53647070Y-43668573D01*
X53694689Y-43573335D01*
X53789927Y-43525716D01*
X53885165Y-43525716D01*
X53980403Y-44001907D01*
X54313736Y-43097145D02*
X53313736Y-43097145D01*
X53694689Y-43097145D02*
X53647070Y-43001907D01*
X53647070Y-42811431D01*
X53694689Y-42716192D01*
X53742308Y-42668573D01*
X53837546Y-42620954D01*
X54123260Y-42620954D01*
X54218498Y-42668573D01*
X54266117Y-42716192D01*
X54313736Y-42811431D01*
X54313736Y-43001907D01*
X54266117Y-43097145D01*
X53647070Y-41763811D02*
X54313736Y-41763811D01*
X53647070Y-42192383D02*
X54170879Y-42192383D01*
X54266117Y-42144764D01*
X54313736Y-42049526D01*
X54313736Y-41906669D01*
X54266117Y-41811431D01*
X54218498Y-41763811D01*
X54266117Y-41335240D02*
X54313736Y-41240002D01*
X54313736Y-41049526D01*
X54266117Y-40954288D01*
X54170879Y-40906669D01*
X54123260Y-40906669D01*
X54028022Y-40954288D01*
X53980403Y-41049526D01*
X53980403Y-41192383D01*
X53932784Y-41287621D01*
X53837546Y-41335240D01*
X53789927Y-41335240D01*
X53694689Y-41287621D01*
X53647070Y-41192383D01*
X53647070Y-41049526D01*
X53694689Y-40954288D01*
X53408975Y-40525716D02*
X53361356Y-40478097D01*
X53313736Y-40382859D01*
X53313736Y-40144764D01*
X53361356Y-40049526D01*
X53408975Y-40001907D01*
X53504213Y-39954288D01*
X53599451Y-39954288D01*
X53742308Y-40001907D01*
X54313736Y-40573335D01*
X54313736Y-39954288D01*
X53932784Y-39525716D02*
X53932784Y-38763811D01*
X54313736Y-38287621D02*
X53647070Y-38287621D01*
X53313736Y-38287621D02*
X53361356Y-38335240D01*
X53408975Y-38287621D01*
X53361356Y-38240002D01*
X53313736Y-38287621D01*
X53408975Y-38287621D01*
X53647070Y-37811431D02*
X54313736Y-37811431D01*
X53742308Y-37811431D02*
X53694689Y-37763811D01*
X53647070Y-37668573D01*
X53647070Y-37525716D01*
X53694689Y-37430478D01*
X53789927Y-37382859D01*
X54313736Y-37382859D01*
X53647070Y-37049526D02*
X53647070Y-36668573D01*
X53313736Y-36906669D02*
X54170879Y-36906669D01*
X54266117Y-36859050D01*
X54313736Y-36763811D01*
X54313736Y-36668573D01*
X54266117Y-35954288D02*
X54313736Y-36049526D01*
X54313736Y-36240002D01*
X54266117Y-36335240D01*
X54170879Y-36382859D01*
X53789927Y-36382859D01*
X53694689Y-36335240D01*
X53647070Y-36240002D01*
X53647070Y-36049526D01*
X53694689Y-35954288D01*
X53789927Y-35906669D01*
X53885165Y-35906669D01*
X53980403Y-36382859D01*
X54313736Y-35478097D02*
X53647070Y-35478097D01*
X53837546Y-35478097D02*
X53742308Y-35430478D01*
X53694689Y-35382859D01*
X53647070Y-35287621D01*
X53647070Y-35192383D01*
X54266117Y-34430478D02*
X54313736Y-34525716D01*
X54313736Y-34716192D01*
X54266117Y-34811431D01*
X54218498Y-34859050D01*
X54123260Y-34906669D01*
X53837546Y-34906669D01*
X53742308Y-34859050D01*
X53694689Y-34811431D01*
X53647070Y-34716192D01*
X53647070Y-34525716D01*
X53694689Y-34430478D01*
X54313736Y-33859050D02*
X54266117Y-33954288D01*
X54218498Y-34001907D01*
X54123260Y-34049526D01*
X53837546Y-34049526D01*
X53742308Y-34001907D01*
X53694689Y-33954288D01*
X53647070Y-33859050D01*
X53647070Y-33716192D01*
X53694689Y-33620954D01*
X53742308Y-33573335D01*
X53837546Y-33525716D01*
X54123260Y-33525716D01*
X54218498Y-33573335D01*
X54266117Y-33620954D01*
X54313736Y-33716192D01*
X54313736Y-33859050D01*
X54313736Y-33097145D02*
X53647070Y-33097145D01*
X53742308Y-33097145D02*
X53694689Y-33049526D01*
X53647070Y-32954288D01*
X53647070Y-32811431D01*
X53694689Y-32716192D01*
X53789927Y-32668573D01*
X54313736Y-32668573D01*
X53789927Y-32668573D02*
X53694689Y-32620954D01*
X53647070Y-32525716D01*
X53647070Y-32382859D01*
X53694689Y-32287621D01*
X53789927Y-32240002D01*
X54313736Y-32240002D01*
%TO.C,AC-IN*%
X29575523Y-55339659D02*
X30051713Y-55339659D01*
X29480285Y-55625373D02*
X29813618Y-54625373D01*
X30146951Y-55625373D01*
X31051713Y-55530135D02*
X31004094Y-55577754D01*
X30861237Y-55625373D01*
X30765999Y-55625373D01*
X30623142Y-55577754D01*
X30527904Y-55482516D01*
X30480285Y-55387278D01*
X30432666Y-55196802D01*
X30432666Y-55053945D01*
X30480285Y-54863469D01*
X30527904Y-54768231D01*
X30623142Y-54672993D01*
X30765999Y-54625373D01*
X30861237Y-54625373D01*
X31004094Y-54672993D01*
X31051713Y-54720612D01*
X31480285Y-55244421D02*
X32242190Y-55244421D01*
X32718380Y-55625373D02*
X32718380Y-54625373D01*
X33194571Y-55625373D02*
X33194571Y-54625373D01*
X33765999Y-55625373D01*
X33765999Y-54625373D01*
%TO.C,U1*%
X34530157Y-34378918D02*
X34530157Y-35188442D01*
X34577776Y-35283680D01*
X34625395Y-35331299D01*
X34720633Y-35378918D01*
X34911109Y-35378918D01*
X35006347Y-35331299D01*
X35053966Y-35283680D01*
X35101585Y-35188442D01*
X35101585Y-34378918D01*
X36101585Y-35378918D02*
X35530157Y-35378918D01*
X35815871Y-35378918D02*
X35815871Y-34378918D01*
X35720633Y-34521776D01*
X35625395Y-34617014D01*
X35530157Y-34664633D01*
%TO.C,HC-12*%
X66279842Y-52039767D02*
X66279842Y-51039767D01*
X66279842Y-51515958D02*
X66851270Y-51515958D01*
X66851270Y-52039767D02*
X66851270Y-51039767D01*
X67898889Y-51944529D02*
X67851270Y-51992148D01*
X67708413Y-52039767D01*
X67613175Y-52039767D01*
X67470318Y-51992148D01*
X67375080Y-51896910D01*
X67327461Y-51801672D01*
X67279842Y-51611196D01*
X67279842Y-51468339D01*
X67327461Y-51277863D01*
X67375080Y-51182625D01*
X67470318Y-51087387D01*
X67613175Y-51039767D01*
X67708413Y-51039767D01*
X67851270Y-51087387D01*
X67898889Y-51135006D01*
X68327461Y-51658815D02*
X69089365Y-51658815D01*
X70089365Y-52039767D02*
X69517937Y-52039767D01*
X69803651Y-52039767D02*
X69803651Y-51039767D01*
X69708413Y-51182625D01*
X69613175Y-51277863D01*
X69517937Y-51325482D01*
X70470318Y-51135006D02*
X70517937Y-51087387D01*
X70613175Y-51039767D01*
X70851270Y-51039767D01*
X70946508Y-51087387D01*
X70994127Y-51135006D01*
X71041746Y-51230244D01*
X71041746Y-51325482D01*
X70994127Y-51468339D01*
X70422699Y-52039767D01*
X71041746Y-52039767D01*
D11*
%TO.C,AC-IN*%
X39910015Y-56785007D02*
X29750015Y-56785007D01*
X29750015Y-56785007D02*
X29750015Y-64405007D01*
X39910015Y-63135007D02*
X29750015Y-63135007D01*
X39910015Y-64405007D02*
X39910015Y-56785007D01*
X29750015Y-64405007D02*
X39910015Y-64405007D01*
%TO.C,U1*%
X37942062Y-46206538D02*
X37942062Y-35926538D01*
X32642062Y-35926538D02*
X32642062Y-46206538D01*
X37942062Y-35926538D02*
X36292062Y-35926538D01*
X32642062Y-46206538D02*
X37942062Y-46206538D01*
X34292062Y-35926538D02*
X32642062Y-35926538D01*
X34292062Y-35926538D02*
G75*
G03*
X36292062Y-35926538I1000000J0D01*
G01*
%TO.C,HC-12*%
X67876823Y-46960000D02*
X67876823Y-36740000D01*
X70536823Y-46960000D02*
X67876823Y-46960000D01*
X67876823Y-49560000D02*
X67876823Y-48230000D01*
X70536823Y-36740000D02*
X67876823Y-36740000D01*
X70536823Y-46960000D02*
X70536823Y-36740000D01*
X69206823Y-49560000D02*
X67876823Y-49560000D01*
%TD*%
M02*
